<?xml version="1.0" encoding="utf-8"?>
<!-- Generator: Adobe Illustrator 21.1.0, SVG Export Plug-In . SVG Version: 6.00 Build 0)  -->
<svg version="1.1" xmlns="http://www.w3.org/2000/svg" xmlns:xlink="http://www.w3.org/1999/xlink"
	 viewBox="0 0 1064 739" style="enable-background:new 0 0 1064 739;" xml:space="preserve">
<style type="text/css">
	.st0{fill:#FFCD06;}
	.st1{fill:#333744;}
	.st2{fill:#343844;}
	.st3{fill:#343845;}
	.st4{fill:#363A47;}
	.st5{fill:#353946;}
	.st6{fill:#363A46;}
	.st7{fill:#FFFFFF;}
	.st8{fill:#FFCF0D;}
	.st9{fill:#FAFAF9;}
	.st10{fill:#FFD941;}
	.st11{fill:#FFF3C4;}
	.st12{fill:#ACADB3;}
	.st13{fill:#CCCDD0;}
	.st14{fill:#F6F6F7;}
	.st15{fill:#FFE600;}
    
    @keyframes cool-japa{
        from{opacity: 1}
        to{opacity: 0}
    }
    
    .cool1{animation-name: cool-japa;
            animation-duration: 1s;
            animation-iteration-count: infinite;
        animation-direction: alternate;
            animation-timing-function: linear;
        animation-delay: 0s
            }
    
    .cool2{animation-name: cool-japa;
            animation-duration: 1s;
            animation-iteration-count: infinite;
        animation-direction: alternate;
            animation-timing-function: linear;
        animation-delay: 0.5s
            }
    
    .cool3{animation-name: cool-japa;
            animation-duration: 1s;
            animation-iteration-count: infinite;
        animation-direction: alternate;
            animation-timing-function: linear;
        animation-delay: 1s
            }
    
    
  
    
    
    
</style>
    
    
    
    
<g id="EZthree">
	<path class="st0" d="M177.3,383.3c-1-1.9-2.6-3.5-2.9-5.7c0.3-0.1,0.6-0.1,0.9-0.2c7.1,7.7,14.8,14.5,22.9,21.1
		c10.1,8.3,20.6,16.1,31.6,23.2c0,0.3,0,0.6,0.1,0.8c-1.6,0-3.3-0.2-4.9,0.2c-0.2,0-0.3,0-0.5,0c0.2,0,0.3,0.1,0.5,0.1
		c0,1.5,1.7,1.5,2.3,2.5c-0.5,1-1.5,0.5-2.2,0.5c-11.1,0.4-22.2,1.8-33.2,3.4c-2.5,0.4-2.5,0.5-2.1,3.1c0.3,1.8,0.3,3.5,0.1,5.3
		c-1.9,18.4-1.8,36.9-1.1,55.4c0.7,19.3,2.7,38.5,5.2,57.7c2.1,15.5,4.6,30.9,7.4,46.3c1.9,10.1,4,20.1,6.2,30.1
		c3,13.9,6.4,27.7,10.1,41.4c2.9,10.9,6.1,21.7,9.3,32.5c0.5,1.8,0.6,3.4-0.2,5c-1.6,3.3-3.1,6.6-4.5,10c-0.9,2.2-3.7,2.6-4.2,5.5
		c-1.9-2.9-3.1-5.4-4.2-8.1c-3.8-9.4-7.2-18.9-10.2-28.5c-5.8-18.7-9.9-37.8-13.1-57.1c-3.1-18.9-5.3-38-6.8-57.1
		c-1.5-19.4-2.3-38.8-2.5-58.2c-0.2-15.6,0-31.3,0.4-46.9c0.3-10.5,0.9-21.1,1.4-31.6c0.2-3.3,0.1-3.4-3.3-2.9
		c-14.1,2.2-28.3,4.7-42.3,7.3c-2.6,0.5-5.1,0.9-7.7,1.3c-0.6-0.2-1.2-0.2-1.6-0.8c0.7-0.3,1.4-0.6,2.1-0.8c1.9-0.1,3.6-0.8,5.6-1.8
		c-2.4-0.8-4.2,0.7-6.2,0.5c-0.2-0.2-0.5-0.4-0.7-0.7c8.7-2.8,17.3-5.7,25.6-9.4c2.6-1.2,5.1-2.4,7.9-3.7c-1-1.5-2.5-1.5-3.8-1.9
		c-21.9-7.6-43.4-16.3-64-27c-14.5-7.6-28.5-16-41.1-26.5c-9.4-7.9-17.9-16.6-23.8-27.4c-1.5-2.8-2.7-5.8-4-8.7
		c-0.1-1.3-0.5-2.5-1.2-3.6c-1.7-7.1-1.7-14.4-0.7-21.5c0.8-5.5,2.9-10.7,5.7-15.5c3.2-5.4,6.6-10.8,10.8-15.6
		c5.1-5.9,10.6-11.4,16.5-16.5c8.2-7.2,17.2-13.3,26.4-19.2c7.3-4.7,15-9,22.6-13.2c8.9-4.9,18-9.3,27.2-13.5
		c10.5-4.9,21.2-9.3,31.9-13.7c18.4-7.5,37-14.3,55.8-20.8c10.9-3.8,22-7.3,33-10.9c10.9-3.5,21.9-6.8,32.9-10.1
		c11.6-3.4,23.3-6.5,34.8-10.1c6.4-1.9,12.8-3.8,19.2-5.4c16-4,31.8-8.4,47.8-12.3c17.2-4.1,34.3-8.4,51.4-12.4
		c21.9-5.1,43.8-10.1,65.8-14.7c17.4-3.7,34.8-7.5,52.2-11.1c16.9-3.5,33.9-6.8,50.8-10.1c27.3-5.2,54.6-10.4,81.9-15.5
		c23.4-4.3,46.9-8.4,70.3-12.4c24.5-4.2,49-8.4,73.6-12.4c24.7-4,49.3-7.9,74-11.8c17.3-2.7,34.7-5.3,52-8c0.5-0.1,1.5-0.8,1.5,0.6
		c-2.4,0.6-3.1,3.3-5.2,4.4c-4,2.3-8.7,2.2-13.1,2.9c-32.2,5-64.3,10.2-96.5,15.6c-32,5.3-64,10.9-95.9,16.7
		c-27.1,4.9-54.2,10.1-81.3,15.2c-26.8,5.1-53.4,10.4-80.1,15.9c-5,1-9.8,2.7-14.8,3.3c-6.3,0.8-12.3,2.6-18.5,3.7
		c-6.1,1.2-12.2,2.8-18.3,4c-6.2,1.2-12.4,2.9-18.7,3.9c-3.4,0.6-6.8,1.6-10.2,2.3c-3.3,0.7-6.6,1.5-9.9,2.2
		c-3.7,0.7-7.4,1.8-11.1,2.5c-4.7,0.8-9.2,2.1-13.9,3.1c-4.9,1.1-9.9,2.4-14.8,3.5c-5,1.1-9.8,2.7-14.8,3.4c-4,0.6-7.8,2.2-11.8,2.9
		c-6.2,1-12.2,3-18.3,4.3c-8.8,1.9-17.5,4.3-26.2,6.5c-5.3,1.4-10.5,3.2-15.8,4.4c-14.8,3.4-29.5,7.5-44.2,11.6
		c-14.3,4-28.5,8-42.7,12.2c-26.7,7.8-53.3,16.4-79.5,25.6c-16.5,5.8-32.8,11.9-49,18.5c-9.7,4-19.4,8.2-29,12.6
		c-8.3,3.8-16.5,7.9-24.6,12.1c-11.7,6.1-23.1,12.8-33.8,20.7c-6.4,4.7-12.7,9.7-18.1,15.7c-5.6,6.3-10.4,13-12.7,21.3
		c-3.1,11.1-1.3,21.4,5,31.1c5.3,8.1,12.3,14.6,20,20.3c13.6,10,28.5,17.8,43.9,24.6c17.8,7.9,36.1,14.5,54.7,20.4
		c3.9,1.2,7.8,2.5,11.7,3.8c0.9,0.3,1.8,0.5,3.1-0.1c-1.8-2.6-2.1-5.8-4-8.4c-0.8-1.2-1.9-2.4-1.8-4.1c0.2,0,0.4,0,0.6-0.1
		c1.1,1,2.2,2,3.4,3c0.5,0.9,1.2,1.7,2.1,2.2c0.2,0.2,0.3,0.6,0.6,0.3c0.3-0.2,0-0.5-0.2-0.8C178,384.5,177.9,383.7,177.3,383.3z
		 M137.2,435.5l0,0.1l0.3,0L137.2,435.5z"/>
	<path class="st1" d="M347.1,399.7c-1.2,0-2.4,0.1-3.5,0.1c-36.9,0-73.7,0-110.6,0c-4.6,0-4,0.6-4-3.9c0-49.3,0-98.6,0-147.9
		c0-4.6-0.4-4,3.9-4c35.6,0,71.1,0,106.7,0c0.7,0,1.4,0,2.1,0c1.3-0.1,1.9,0.4,1.9,1.8c0,7.9,0,15.9,0,23.8c0,1.2-0.5,1.7-1.7,1.7
		c-0.9,0-1.9,0-2.8,0c-24.4,0-48.8,0-73.2,0c-0.8,0-1.7,0-2.5,0c-2.5,0.1-2.5,0.1-2.6,2.6c0,7.5,0,14.9,0,22.4c0,1.7,0,3.3,0,5
		c0,3.5-0.2,3.2,3.4,3.2c0.7,0,1.4,0,2.1,0c22.2,0,44.3,0,66.5,0c0.8,0,1.7,0,2.5,0c1.4-0.1,1.9,0.5,1.9,1.9c0,7.9,0,15.9,0,23.8
		c0,1.6-0.7,2-2.2,2c-2.1-0.1-4.3,0-6.4,0c-21,0-42,0-62.9,0c-0.7,0-1.4,0-2.1,0c-2.7,0.1-2.7,0.1-2.7,2.8c0,11.4,0,22.8,0,34.1
		c0,3.2-0.1,3,3.2,3c26.5,0,53.1,0,79.6,0c1.2,0,2.6-0.5,3.7,0.5C347.2,381.6,347.1,390.6,347.1,399.7z"/>
	<path class="st2" d="M348,372.6c1-3.1,3.5-5.3,5.4-7.7c9.6-11.7,18.9-23.5,28.4-35.2c14.6-17.8,28.7-36,43-54
		c1-1.3,2.2-2.4,3.4-3.6c-0.6-1.3-1.9-0.8-2.8-0.8c-13.6,0-27.3,0-40.9,0c-10.3,0-20.6,0-30.9,0c-3,0-3.1,0-3.1-3.1
		c0-7.1,0-14.2,0-21.3c0-2.8,0-2.9,2.9-2.9c20.2,0,40.3,0,60.5,0c17.3,0,34.6,0,51.9,0c0.8,0,1.7,0,2.5,0c1.2,0,1.7,0.4,1.7,1.6
		c0,7.6,0,15.2,0,22.8c0,1.2-0.6,1.9-1.3,2.8c-7,8.8-14,17.7-21.1,26.6c-5.9,7.5-11.9,14.9-17.9,22.4c-5.8,7.3-11.6,14.6-17.4,21.8
		c-6,7.6-12,15.1-18,22.7c-1.8,2.3-3.8,4.4-5.6,7.4c1.5,0,2.8,0,4,0c24.4,0,48.8,0,73.3,0c4.2,0,3.8-0.4,3.8,3.8c0,7,0,14,0,21
		c0,2.9,0,2.9-2.9,3c-5.1,0-10.2,0-15.3,0c-33.2,0-66.4,0-99.6,0c-1.3,0-2.6-0.1-3.9-0.1c0-7.9-0.1-15.8-0.1-23.6
		C348.3,374.9,348.7,373.7,348,372.6z"/>
	<path class="st3" d="M718.3,289c0.1,0.3,0.3,0.5,0.7,0.4c1.9,1.9,3.9,3.8,5.8,5.7c0,0,0,0,0,0c2,3.2,3.8,6.4,5.2,9.9
		c1.5,6,1.9,12.1,1.8,18.2c0,7-0.2,13.9,0.2,20.9c-0.2,0.8-0.2,1.6,0,2.3c-0.2,0.6-0.1,1.1,0.6,1.4c-1.2,1-0.8,2.4-0.8,3.7
		c0,14.6,0,29.1,0,43.7c0,0.8-0.1,1.7,0,2.5c0.1,1.5-0.5,2.1-2,2.1c-4.1-0.1-8.3,0-12.4,0c-4.5,0-9,0-13.5,0c-3.4,0-3-0.1-3-3.2
		c0-12.7,0-25.3,0-38c0-1.1-0.1-2.1-0.1-3.2c0-0.4,0-0.9,0-1.3c0.3-10.4,0.3-20.8,0-31.2c-0.1-2.4-0.6-4.7-1.3-7
		c-1.5-5-4.8-8-9.7-9.4c-3.1-0.9-6.3-1-9.5-0.9c-7.8,0.3-13.7,3.9-17.9,10.4c-2.3,3.6-3.8,7.7-4.2,11.9c-1.1,12.8-0.5,25.5-0.4,38.3
		c-0.1,9.7-0.1,19.4-0.2,29.1c0,5.1,0.7,4.4-4.2,4.4c-7.9,0-15.9,0-23.8,0c-2.5,0-2.5-0.1-2.5-2.6c0-5.1,0-10.2,0-15.3
		c0-45.3,0-90.5,0-135.8c0-4.2,0-4.2,4.4-4.2c7.7,0,15.4,0,23.1,0c3.1,0,3.1,0,3.1,3.1c0,16.6,0,33.2,0,49.8c0,0.7,0.1,1.4,0.1,2.1
		c0,0,0,0,0,0c-0.2,0.4-0.3,1,0.1,1.2c0.5,0.3,0.5-0.4,0.7-0.7c0.4-0.2,0.5-0.5,0.4-1c2.3-3.9,5.5-7,9.5-9.1
		c14.7-7.9,29.6-8.2,44.8-1.5c0.6,0.3,1.3,0.5,1.9,0.8C715.8,287.7,717,288.4,718.3,289z"/>
	<path class="st3" d="M914.6,315.8c1.2,5.4,2.7,10.8,3.3,16.3c0.6,5.9,1.3,11.7,0.9,17.6c-1.3,0.7-2.7,0.4-3.9,0.4
		c-23.6,0-47.1,0-70.7,0c-1.1,0-2.1,0-3.2,0c-1.2,0-1.6,0.6-1.5,1.8c0.9,8.2,3.4,15.7,9.9,21.3c0.4,0.4,1,0.6,1.5,0.9
		c2.2,1.9,4.7,3.1,7.5,3.5c4.8,1.5,9.5,1.3,14.2-0.1c3-0.6,5.8-1.9,8-4.1c1.3-0.7,2.3-1.8,2.8-3.1c1.2-1.1,1.7-2.5,2-4
		c0.8-0.6,1.8-0.5,2.7-0.5c8.8,0,17.6,0,26.4,0c0.9,0,2.2-0.6,2.5,1.1c-0.5,1.2-1.1,2.3-1.2,3.6c-0.6,0.4-0.7,1.1-0.7,1.8
		c-1.2,1.9-2.1,3.9-3,6c-1,1.3-2,2.6-2.6,4.2c-0.8,0.5-1.3,1.3-1.7,2.2c-4.1,4.4-8.4,8.6-13.7,11.5c-4.8,2.5-9.7,4.7-15.1,5.7
		c-9.2,1.6-18.4,1.2-27.6,0c-13.8-1.8-24.8-8.2-32.8-19.6c-4.4-6.3-7.3-13.4-8.3-20.8c-1.8-13-2.7-26.1,0.2-39.2
		c1.6-7.3,4.4-14,8.7-20.1c0.2-0.2,0.1-0.6,0.2-1c1.1-0.9,2.4-1.6,3-3.1c3.8-3.9,8-7.2,12.6-10.1c1.4-0.4,2.7-1.1,3.9-2
		c4.7-1.5,9.3-3.2,14.3-3.9c9.8-1.3,19.5-1.2,29.1,1.4c0.3,0.1,0.7,0.1,1,0.1c0.4,0.1,0.9,0.3,1.3,0.4c0.5,0.5,1.1,0.6,1.8,0.6
		c1.2,0.8,2.6,1.4,4,1.8c0.6,0.5,1.3,1,2.1,1c0.3,0.6,0.8,0.7,1.4,0.8c0.5,0.6,1.2,1.1,2,1.3c0.6,0.8,1.4,1.3,2.2,1.7
		c2.5,2.5,5,5.1,7.5,7.6c1.3,1.9,2.6,3.7,3.8,5.6c0.2,1.1,0.7,2,1.5,2.8c0.1,0.3,0.2,0.5,0.3,0.8c0,0.3,0.1,0.5,0.4,0.6
		c0,0.6,0.1,1.2,0.7,1.6c-0.1,0.5,0,0.9,0.4,1.2C913.3,312.9,913.7,314.4,914.6,315.8z M840.5,330.3c0.5,0.2,0.8,0.4,1,0.4
		c14.7,0,29.3,0,44,0c0.1,0,0.2,0,0.4,0c1.2,0.1,1.7-0.4,1.5-1.7c-0.3-2.3-0.6-4.7-1.3-7c-2.8-8.5-8.3-14.2-17.3-16
		c-8.5-1.7-15.9,0.6-21.8,7.2C842.8,318.1,840.9,323.9,840.5,330.3z"/>
	<path class="st2" d="M1027,305.1c3,6.4,5.4,13.1,6.8,20.1c1.4,7.3,2,14.8,2.2,22.2c0.1,2.7,0,2.7-2.8,2.7c-14.6,0-29.1,0-43.7,0
		c-10.1,0-20.1,0-30.2,0c-2.9,0-3,0.1-2.7,3c0.3,2.6,0.7,5.2,1.7,7.6c0.2,0.8,0.2,1.5,0.8,2.1c0.4,1.6,1,3,2.1,4.3
		c0.3,0.9,0.7,1.7,1.6,2.2c0,0,0,0,0,0c1.2,2.2,2.9,3.8,5.1,5c2.2,2.1,4.9,3.1,7.8,3.7c7.4,1.5,14.5,1.1,20.8-3.6
		c2.4-1.3,4.1-3.2,5-5.9c0.8-2.1,2.2-2.8,4.5-2.8c9.2,0.2,18.4,0.1,27.8,0.1c0.1,2.9-1.7,5-2.1,7.5c-1.2,1.8-2.1,3.6-2.9,5.6
		l0.1,0.2c0,0-0.1-0.2-0.1-0.2c-1.2,1.3-2.1,2.8-2.9,4.4c-0.4,0.1-0.5,0.3-0.5,0.7c-1.2,1-2.2,2.3-3.1,3.6c-0.9,0.4-1.5,1.1-1.9,1.9
		c-1.3,0.9-2.6,1.8-3.6,3.1c-0.4,0-0.6,0.1-0.7,0.5c-0.9,0.3-1.7,0.8-2.3,1.6c-0.8,0.1-1.5,0.6-2,1.2c-2.5,1.2-5,2.4-7.5,3.7
		c-4.7,1.2-9.3,2.6-14.1,3.1c-9.5,0.9-18.8-0.1-28.1-2.1c-0.4-0.1-0.9-0.3-1.3-0.4c-1.9-0.7-3.8-1.4-5.7-2c-3.6-2-7.3-4-10.7-6.4
		c-2.1-2.1-4.2-4.2-6.3-6.3c-0.5-1.2-1.3-2.2-2.3-3c-0.2-0.8-0.6-1.4-1.2-2c-0.1-0.6-0.3-1.1-0.8-1.4c-0.3-1.3-1-2.4-1.7-3.5
		c-0.8-1.9-1.6-3.9-2.4-5.8c-0.2-0.9-0.2-2-0.9-2.7c0-1.3-0.4-2.4-0.9-3.6c-1.7-8.8-2.5-17.8-2.2-26.8c0.3-8.4,1.7-16.4,4.9-24.2
		c0.2-0.4,0.2-0.9,0.3-1.4c0.9-1.2,1.5-2.5,1.9-3.9c2.1-3,4.2-6,6.3-9c1.7-1.7,3.5-3.5,5.2-5.2c0.4,0,0.6-0.2,0.7-0.6
		c1.2-0.5,2.2-1.2,3-2.2c0.8-0.2,1.5-0.6,2-1.3c0.6-0.1,1.1-0.3,1.4-0.8c1.3-0.3,2.4-1,3.5-1.7c1.8-0.7,3.6-1.4,5.4-2
		c0.6-0.2,1.3-0.4,1.9-0.7c11.5-2.9,23.1-3.3,34.7-0.7c6.1,1.3,11.5,4.1,16.8,7.3c1.1,1.2,2.3,2.2,3.7,3c0.7,1.1,1.6,1.9,2.7,2.7
		c0.8,1.4,1.8,2.6,3.1,3.7c0.5,1.3,1.3,2.4,2.3,3.3C1025.9,303.8,1026.2,304.6,1027,305.1z M957.6,330.4c1.2,0.6,2.5,0.3,3.8,0.3
		c12.2,0,24.4,0,36.6,0c7.2,0,7.2,0,5.5-7.1c-3.3-13.5-16.5-21.1-29.5-17C964.6,309.6,957.7,319.5,957.6,330.4z"/>
	<path class="st1" d="M539.7,388.3c0-1.2,0.1-2.4,0.1-3.5c0-36.5,0-73,0-109.5c0-4.3,0.6-4-4-4c-14,0-28,0-41.9,0
		c-0.8-0.9-0.7-2-0.7-3c0-7.2,0-14.4,0-21.6c0-0.9,0-1.9,0.5-2.7c40.3,0,80.5,0,120.8,0c0.7,0,1.4,0,2.1,0c3.1,0,3.1,0,3.1,3.1
		c0,7.1,0,14.2,0,21.3c0,2.9,0,2.9-2.9,2.9c-13.3,0-26.5,0-39.8,0c-0.8,0-1.7,0-2.5,0c-1.3-0.1-2,0.4-1.9,1.8c0,0.6,0,1.2,0,1.8
		c0,34.3,0,68.7,0,103c0,1.1,0.1,2.1,0.1,3.2c0,1.1,0,2.2-0.1,3.4c0,0.3,0,0.6,0,1c0,4-0.1,8.1,0,12.1c0,1.7-0.4,2.3-2.2,2.3
		c-9.5-0.1-19-0.1-28.4,0c-1.8,0-2.3-0.6-2.2-2.3c0.1-1.2,0-2.4-0.1-3.5c0-0.4,0-0.8,0.1-1.1c0-1.2-0.1-2.3-0.1-3.5
		C539.7,389,539.7,388.7,539.7,388.3z"/>
	<path class="st1" d="M743.7,342.2c0.1-1.3,0.1-2.6,0.1-3.9c0-16.9,0-33.9,0-50.8c0-3.4-0.2-3.1,3-3.1c7.7,0,15.4,0,23.1,0
		c2.5,0,2.5,0.1,2.5,2.6c0.1,2.5,0.1,5,0.2,7.4c-0.2,0.9-0.3,1.7,0.2,2.8c0.9-0.9,1.6-1.7,1.9-2.7c0.4-0.1,0.5-0.3,0.5-0.7
		c2-1.9,3.9-3.8,5.9-5.7c1.5-0.7,2.9-1.6,4.1-2.7c1.1-0.3,2.2-0.8,3.1-1.5c6.3-2.3,12.9-2.6,19.5-2.6c2.8,0,2.8,0,2.8,2.6
		c0,8.6,0,17.3,0,25.9c0,2.6-0.1,2.7-2.8,2.5c-3.7-0.3-7.3-0.5-11,0c-4.3,0.6-8.6,1.5-12.4,4.1c-5.2,3.5-8.2,8.2-9.4,14.1
		c-0.3,1.5-0.8,3-0.6,4.5c-0.2,0.7-0.3,1.3-0.1,2c-0.1,1.5-0.2,3.1-0.2,4.6c0,17.9,0,35.7,0,53.6c0,0.6,0,1.2,0,1.8
		c0,2.8,0,2.8-3,2.8c-4,0-8,0-12.1,0c-4.3,0-8.5,0-12.8,0c-2.7,0-2.7,0-2.7-2.7c0-10.6,0-21.3,0-31.9c0-6.3-0.1-12.5-0.1-18.8
		c0-0.3,0-0.6,0-0.9C743.8,344.4,743.7,343.3,743.7,342.2z"/>
	<path class="st4" d="M709.1,450.2c-1.2,7.6-2.4,15.2-3.5,22.8c-1.3,8.4-2.4,16.9-3.7,25.3c-0.1,0.6-0.4,1.1-0.4,1.7
		c-0.1,1.6-0.9,2.2-2.5,2.1c-3.4-0.2-6.8,0.2-10.2-0.2c-0.3-6.6-1.8-12.8-2.7-19.1c-1.2-8.5-2.7-17.1-4.1-25.6
		c-0.2-1.1,0.1-3.1-1.5-3c-1.2,0.1-0.6,2-0.6,3.1c0,13.5,0,27,0,40.5c0,0.8,0,1.7,0,2.5c0,1.1-0.4,1.8-1.6,1.7c-2.6,0-5.2-0.1-7.8,0
		c-1.4,0-1.9-0.7-1.8-2c0-0.7,0-1.4,0-2.1c0-24.4,0-48.8,0-73.2c0-4.1-0.6-3.8,3.8-3.8c3.8,0,7.6,0,11.4,0c2.7,0,2.7,0,3.1,2.6
		c1.3,7.8,2.5,15.7,3.7,23.5c1.4,8.6,2.8,17.3,4.3,25.9c0.1,2.5,0.1,2.5,1.4,4.4c0-1.2,0-2.1,0-3c1.4-9.4,2.9-18.7,4.3-28.1
		c1.2-7.7,2.4-15.4,3.4-23.2c0.3-1.9,1.1-2.3,2.7-2.2c4.4,0.1,8.8,0.1,13.1,0c1.7,0,2.3,0.5,2.2,2.2c-0.1,1.9,0,3.8,0,5.7
		c0,23,0,46,0,68.9c0,0.9,0,1.9,0,2.8c0,1-0.5,1.5-1.5,1.4c-3,0-5.9,0-8.9,0c-1.3,0-1.7-0.6-1.6-1.7c0.1-0.9,0-1.9,0-2.8
		c0-15.8-0.1-31.5-0.1-47.3c0.6-1.5,0.2-3.1,0.3-5C709.2,447.6,709.2,447.6,709.1,450.2z M680.6,449.5c0.1-1,0.1-1.9-0.4-2.9
		c-0.5,1.1-0.5,2-0.3,2.9c0,1.3-0.6,2.7,0.5,3.9c0.1,0.1,0.3,0.1,0.3,0.1C681.9,452.1,680.6,450.8,680.6,449.5z"/>
	<path class="st5" d="M491.9,446.1c-0.8,1.9-0.5,3.2-0.5,4.5c0,15.6,0,31.3,0,46.9c0,0.8,0,1.7,0,2.5c0.1,1.3-0.4,2-1.8,1.9
		c-2.6-0.1-5.2-0.1-7.8,0c-1.4,0-1.9-0.6-1.9-1.9c0-0.7,0-1.4,0-2.1c0-24.4,0-48.8,0-73.2c0-4.3-0.5-3.8,3.7-3.8c3.3,0,6.6,0.1,10,0
		c1.8-0.1,2.4,0.6,2.9,2.3c3.5,13.9,7.2,27.8,10.8,41.7c0.1,0.3,0.4,0.5,0.8,1c1-0.9,0.6-2,0.6-2.9c0-12.7,0-25.4,0-38
		c0-0.8,0-1.7,0-2.5c0-1,0.4-1.5,1.5-1.5c2.8,0,5.7,0,8.5,0c1.1,0,1.4,0.6,1.4,1.6c0,0.7,0,1.4,0,2.1c0,24.5,0,49.1,0,73.6
		c0,0.1,0,0.2,0,0.4c0,3.9,0.1,3.4-3.4,3.5c-2.6,0-5.2-0.1-7.8,0c-1.8,0.1-2.7-0.9-3-2.3c-1.2-7-3.4-13.8-5.2-20.6
		c-2.3-8.6-4.3-17.3-7-25.7C493,451.2,492.6,449,491.9,446.1z"/>
	<path class="st6" d="M1025.4,461.5c-1.2,0.9-0.5,1.6,0.3,2.1c2,1.3,3.3,3.2,4.5,5.1c0.3,0.7,0.5,1.4,0.8,2.1c0.9,4,0.9,8,1,12
		c0.1,6.2-0.6,12.5,1.1,19c-4.1,0-8,0-11.8,0c-1.2,0-1.7-0.7-1.8-2.1c-0.5-6.4-0.2-12.8-0.3-19.2c0-2.1-0.1-4.3-0.7-6.3
		c-0.8-3.2-2.7-4.8-6-5.1c-6-0.6-6-0.6-6,5.4c0,8.2,0,16.3,0,24.5c0,2.7,0,2.8-2.7,2.8c-2.7,0-5.4,0-8.2,0c-1.3,0-2-0.4-1.9-1.8
		c0-0.7,0-1.4,0-2.1c0-24.4,0-48.8,0-73.2c0-0.7,0.1-1.4,0-2.1c-0.1-1.4,0.5-1.9,1.9-1.9c7.1,0.1,14.2,0,21.3,0.2
		c4,0.1,7.5,1.8,10.7,4.3c0.7,1,1.5,2.1,2.2,3.1c2.6,6.8,2.2,13.9,1.8,20.9c-0.1,1.3-0.3,2.6-0.4,3.9c-0.6,0.7-0.7,1.6-1,2.4
		c-0.4,0.7-1,1.3-1.1,2.1C1027.9,459.1,1026.6,460.3,1025.4,461.5z M1006.5,444.8c0,2.2,0,4.5,0,6.7c0,6.5,0.2,6.6,6.7,5.7
		c2.9-0.4,4.8-1.9,5.4-4.8c0.9-5.1,0.9-10.3,0-15.5c-0.5-3-2.4-4.3-5.5-4.5c-1.4-0.1-2.8,0.1-4.2,0c-2-0.2-2.4,0.8-2.3,2.5
		C1006.5,438.2,1006.5,441.5,1006.5,444.8z"/>
	<path class="st6" d="M614.4,502c-4.1,0-7.9,0-11.6,0c-1.3,0-1.5-0.5-1.6-1.7c-0.2-2.5-0.6-4.9-0.6-7.4c0-5.2,0.1-10.4-0.1-15.6
		c-0.3-6.5-5.3-8.8-11.3-8c-0.7,0.1-1,0.6-1,1.2c0,0.8,0,1.7,0,2.5c0,8.4,0,16.8,0,25.2c0,3.8,0,3.8-4,3.8c-2.2,0-4.5-0.1-6.7,0
		c-1.6,0.1-2.1-0.6-2-2.1c0.1-0.7,0-1.4,0-2.1c0-24.3,0-48.5,0-72.8c0-0.6,0.1-1.2,0-1.8c-0.3-1.9,0.7-2.4,2.4-2.3
		c6.3,0.1,12.6,0,18.8,0.1c3.2,0,6.3,0.8,9.1,2.3c4.7,2.5,6.8,6.9,7.2,11.8c0.6,5.7,0.9,11.6-0.5,17.3c-0.9,3.5-2.2,6.7-5.5,8.7
		c-1.5,0.9-1.2,1.8,0,2.7c4.7,3.3,6.1,8.2,6.2,13.5c0.1,4.6,0,9.2,0,13.9C613.3,494.6,613.5,498.1,614.4,502z M600.3,444.9
		C600.3,444.9,600.3,444.9,600.3,444.9c0-2.2,0.2-4.5-0.1-6.7c-0.4-3.9-2.4-5.6-6.3-5.7c-1.2,0-2.4,0.1-3.5,0
		c-2-0.2-2.4,0.7-2.4,2.5c0.1,5.8,0,11.6,0,17.4c0,5.5,0,5.5,5.6,5.1c4.1-0.3,6.2-2.3,6.6-6.4C600.4,448.9,600.3,446.9,600.3,444.9z
		"/>
	<path class="st6" d="M280.2,467.4c0.1-8.8,0.2-17.5,0.1-26.3c0-3.2,0.3-6.5,1-9.5c1.1-4.6,3.8-8.2,8.6-10c5-1.9,10.1-2.5,15.3-1.2
		c8.4,2,12.2,7.3,13.4,15.7c0.3,2.1,0.5,4.2,0,6.4c-2.4,0-4.7,0-7.1,0c-4.5,0-4.5,0-4.9-4.6c-0.4-4.6-2.7-6.5-7.2-6.3
		c-3,0.2-4.8,1.5-5.6,4.5c-0.8,2.6-0.7,5.4-0.7,8.1c0,3.7,0,7.4,0,11.1c3.8-5.3,8.8-6.5,14.6-5.8c3.8,0.5,6.4,2.7,8.7,5.5
		c0.3,0.6,0.6,1.2,0.8,1.9c1.3,4.2,2,8.4,1.9,12.8c-0.2,5.9,0.5,11.8-0.4,17.7c-0.8,5.4-3.1,10-7.9,13.1c-1.8,1.2-3.8,1.8-5.8,2.2
		c-4.7,0.8-9.7,1-14.2-0.7c-5.6-2.1-8.9-6.3-9.9-12.4c-1-6.3-0.2-12.5-0.8-18.7C280.4,469.5,280.4,468.4,280.2,467.4z M302.9,461.6
		c-4.5-1.7-7.4-0.7-9,3.4c-0.7,1.2-0.7,2.5-0.7,3.8c0,4.8,0,9.7,0,14.5c0,1.1,0.1,2.1,0.4,3.1c0.8,3.4,3,5,6.4,4.9
		c3.3-0.1,5.2-1.6,6-4.9c0.4-1.5,0.5-3,0.4-4.6c0-3.5,0-7.1,0-10.6c0-1.9,0-3.8-0.5-5.6C305.5,463.8,304.9,462.2,302.9,461.6z"/>
	<path class="st4" d="M528.4,459.3c0.3-7.2-0.4-16.1,0.3-25c0.5-6.1,3.7-10.5,9.1-12.8c5.5-2.3,11.4-2.6,17.3-0.6
		c5.8,1.9,9.2,5.9,10.9,11.5c0.7,2.3,1,4.8,1,7.3c-0.1,14.5-0.1,28.9,0,43.4c0,3.7-0.7,7.2-2.3,10.6c-2.2,4.6-5.8,7.2-10.5,8.5
		c-4.6,1.3-9.3,1.2-13.7,0.2c-5.2-1.2-9.1-4.9-11.1-10.2c-1.1-2.9-1-5.9-1-9C528.3,475.9,528.4,468.4,528.4,459.3z M554.2,461.4
		c0-6.9,0-13.7,0-20.6c0-1.4,0-2.9-0.2-4.2c-0.7-3.6-2.8-5.1-6.6-5.1c-3.5,0.1-5.5,1.8-6,5.3c-0.2,1.6-0.2,3.3-0.2,5
		c0,13.1,0,26.3,0,39.4c0,1.4,0,2.8,0.2,4.3c0.4,4,2.7,6,6.5,6c3.6,0,5.9-2.1,6.3-5.8c0.2-1.3,0.1-2.6,0.1-3.9
		C554.2,474.9,554.2,468.1,554.2,461.4z"/>
	<path class="st6" d="M325.7,440.9c0.3-2.6,0.6-5.2,0.9-7.7c0.6-5.9,4.1-9.8,9.3-11.8c4.6-1.8,9.7-2.4,14.6-1.1
		c8.3,2.1,11.7,5.9,13.7,14.6c0.4,1.7,0.5,3.5,0.5,5.3c0,14.1,0,28.2,0,42.3c0,2.9-0.4,5.6-1.2,8.4c-2,6.2-6,10.3-12.4,11.6
		c-4.6,1-9.4,1-13.9-0.4c-6.2-1.9-9.8-6.3-10.7-12.9c-1.2-8.7-0.3-17.5-0.6-26.2c-0.1-2.8-0.1-5.7-0.2-8.5c0-0.8,0-1.6,0-2.4
		C326,448.2,326,444.6,325.7,440.9z M338.8,449.6c-0.3,11.5-0.1,23-0.1,34.4c0,0.8,0.2,1.6,0.4,2.4c0.9,3.4,2.9,5,6.4,4.9
		c3.3-0.1,5.2-1.6,6.1-4.9c0.4-1.6,0.5-3.3,0.5-4.9c0-13.5,0-27,0-40.5c0-1.5,0-3.1-0.4-4.6c-0.9-3.6-2.6-5-6.2-5
		c-4,0-6.1,1.9-6.6,6.3c-0.3,3.2-0.3,6.4,0,9.6C338.8,448.1,338.8,448.8,338.8,449.6z"/>
	<path class="st5" d="M772.2,502c-3.8,0-7.5,0-11.3,0c-1.1,0-1.3-0.7-1.4-1.6c-0.4-2.8-0.9-5.6-1.3-8.4c-0.2-1.1-0.4-2.1-0.5-3.1
		c-0.1-1-0.5-1.5-1.6-1.5c-4.3,0-8.5,0-12.8,0c-1.1,0-1.4,0.6-1.5,1.6c-0.4,2.8-0.9,5.6-1.3,8.4c-0.1,0.9-0.4,1.9-0.5,2.8
		c-0.3,1.6-1,2.1-2.6,2c-2.2-0.1-4.5,0-6.7,0c-2.5,0-2.6-0.1-2.2-2.7c1-6.4,2.1-12.8,3.1-19.3c2.7-17.2,5.5-34.3,8.2-51.5
		c0.3-1.8,0.6-3.5,0.8-5.3c0.1-2,1.1-2.5,3-2.4c4.5,0.1,9,0,13.5,0c2.7,0,2.7,0,3.2,2.6c0.8,4.8,1.5,9.6,2.3,14.4
		c3,18.8,6.1,37.6,9,56.4C771.8,496.7,772.6,499.1,772.2,502z M750,436.9c-0.8,0.7-0.8,1.3-0.9,1.8c-1.2,8.1-2.4,16.1-3.5,24.2
		c-0.6,3.9-1.1,7.7-1.6,11.6c-0.2,1.4,0.3,1.9,1.7,1.9c2.8-0.1,5.7,0,8.5,0c1,0,1.5-0.4,1.4-1.5c-0.1-0.8-0.1-1.7-0.3-2.5
		c-1.2-8.3-2.4-16.6-3.6-24.9C751.1,444.1,750.6,440.7,750,436.9z"/>
	<path class="st5" d="M656.2,502c-1.8-0.3-4.4,1-5.8-0.6c-1.1-1.4-0.8-3.8-1.2-5.8c-0.4-2.2-0.8-4.4-1.1-6.7
		c-0.2-1.2-0.7-1.6-1.9-1.6c-4,0-8.1,0.1-12.1,0c-1.4,0-1.9,0.5-2,1.8c-0.4,2.8-0.9,5.6-1.3,8.4c-0.1,0.6-0.1,1.2-0.2,1.8
		c-0.6,2.7-0.6,2.7-3.4,2.7c-1.9,0-3.8,0-5.7,0c-3.1,0-3.1-0.1-2.6-3.3c0.4-2.8,0.9-5.6,1.3-8.4c3.6-22.3,7.1-44.6,10.7-66.9
		c0.3-1.9,0.9-2.6,2.9-2.6c4.6,0.1,9.2,0.1,13.9,0c2-0.1,2.7,0.7,2.9,2.5c1.4,9.2,2.9,18.5,4.4,27.7c2.5,15.7,5,31.3,7.5,47
		c0,0.1,0.1,0.2,0.1,0.3c0.6,3.6,0.6,3.6-2.9,3.6C658.6,502,657.6,502,656.2,502z M646.2,476.1c-1.9-13.1-3.8-26-5.7-38.9
		c-0.7,0.4-0.9,0.7-0.9,1c-1.2,8.3-2.4,16.6-3.6,24.9c-0.5,3.7-1,7.5-1.6,11.2c-0.2,1.2,0,2.1,1.5,2
		C639.2,476.3,642.5,476.6,646.2,476.1z"/>
	<path class="st5" d="M835.7,502c2.9-17.9,5.7-35.6,8.5-53.4c1.4-8.5,2.8-17,4.1-25.6c0.2-1.6,0.8-2.2,2.4-2.2
		c4.9,0.1,9.7,0.1,14.6,0c1.6,0,2.2,0.4,2.5,2.1c2.3,14.7,4.7,29.4,7,44.1c1.7,10.9,3.4,21.7,5.2,32.6c0.3,1.7,0.1,2.4-1.8,2.3
		c-3-0.1-5.9-0.1-8.9,0c-1.8,0.1-2.2-0.7-2.3-2.3c-0.4-3.4-1.1-6.8-1.4-10.2c-0.2-1.9-1-2.4-2.7-2.3c-3.7,0.1-7.3,0.1-11,0
		c-1.7-0.1-2.3,0.6-2.5,2.2c-0.4,3.4-1.1,6.8-1.5,10.2c-0.2,1.7-0.7,2.5-2.6,2.4C842.1,501.9,838.9,502,835.7,502z M857.7,436.8
		c-0.2-0.1-0.4-0.1-0.6-0.2c-1.9,13.2-3.8,26.3-5.8,39.8c3.5,0,6.4,0,9.4,0c2.9,0,2.8-0.1,2.4-2.7c-0.6-4.2-1.2-8.4-1.9-12.6
		C860.1,452.9,858.9,444.8,857.7,436.8z"/>
	<path class="st5" d="M429.6,502c1.9-12,3.8-23.7,5.7-35.3c2.3-14.5,4.7-29,6.9-43.4c0.3-1.8,0.8-2.4,2.6-2.4
		c4.7,0.1,9.5,0.1,14.2,0c1.7,0,2.4,0.4,2.7,2.3c2,13.4,4.2,26.9,6.4,40.3c2,12.3,3.9,24.5,5.9,36.8c0.1,0.5,0.1,0.9,0.1,1.7
		c-3.9,0-7.7,0-11.4,0c-1.3,0-1.6-0.7-1.7-1.7c-0.5-3.5-1.2-7-1.5-10.5c-0.2-2-1-2.6-2.9-2.5c-3.5,0.1-7.1,0.1-10.7,0
		c-1.9-0.1-2.5,0.7-2.7,2.4c-0.4,3.4-1.1,6.8-1.5,10.2c-0.2,1.6-0.7,2.3-2.4,2.2C436.2,501.9,433,502,429.6,502z M445.3,476.1
		c3.3,0.6,6.3,0.3,9.4,0.3c2.8,0,2.8,0,2.4-2.8c-1.1-7.6-2.2-15.2-3.4-22.8c-0.7-4.7-1.1-9.5-2.6-14.1
		C449.1,449.7,447.2,462.8,445.3,476.1z"/>
	<path class="st7" d="M657.5,366.3c-0.1-12.8-0.7-25.5,0.4-38.3c0.4-4.3,1.8-8.3,4.2-11.9c4.2-6.5,10.1-10.1,17.9-10.4
		c3.2-0.1,6.4,0.1,9.5,0.9c4.9,1.4,8.3,4.4,9.7,9.4c0.7,2.3,1.2,4.6,1.3,7c0.3,10.4,0.3,20.8,0,31.2c-4.5-1.3-8.8-0.9-13.2,0.4
		c-2.9,0.9-6,1.8-9,1.9c-4.6,0.1-8,2.5-11.5,4.7c-0.1,0.1-0.2,0.1-0.3,0.2c-2.6,0.8-4.6,2.3-6.5,4.2c0,0,0.1-0.1,0.1-0.1
		c-0.2,0.2-0.4,0.5-0.6,0.7c-0.4,0.1-0.8,0.2-1.3,0.3c0,0,0.1,0,0.1,0C658,366.4,657.8,366.3,657.5,366.3z"/>
	<path class="st4" d="M234.7,487.8c0-3.2-0.1-6.4-0.1-9.5c0-2.4,0.1-2.4,2.6-2.5c2.5,0,5,0.1,7.4,0c1.6-0.1,2.1,0.6,2,2.1
		c0,1.3,0.1,2.6,0.2,3.9c-0.2,0.9-0.2,1.8,0.1,2.7c0.2,4.6,2,6.7,5.9,6.9c4.1,0.2,6.4-1.9,6.9-6.4c0.2-2,0.3-4,0-6
		c0.2-1,0.2-2.1,0-3.1c0.3-3.2-0.1-6.1-2.8-8.3c-2-1.6-4.3-2-6.8-2c-2.9,0-2.9-0.1-2.9-3c0-2,0-4,0-6c0-2.6,0-2.6,2.8-2.6
		c2.8,0,5.7,0.4,7.7-2.4c1.5-2.1,2.9-4.3,1.8-7c-0.4-0.9,0-1.5,0.1-2.3c0.4-2.3,0.4-4.7-0.6-6.9c-1.1-2.5-4.2-4.1-6.8-3.6
		c-3.6,0.6-5.1,2.3-5.3,5.8c-0.1,1.2-0.1,2.4-0.1,3.6c0,4,0.4,3.7-3.9,3.7c-2.1,0-4.3,0-6.4,0c-0.9,0-1.7-0.1-1.7-1.3
		c0-4.2-0.2-8.4,1-12.5c1.6-5.4,5.1-8.7,10.4-10.1c4.9-1.3,9.7-1.5,14.6,0c5.9,1.8,9.4,5.8,10.9,11.5c1.4,5.4,1.5,10.9,0.3,16.5
		c-1.1,4.6-3.3,8.2-8.1,10.3c4.7,2.5,7.3,6.3,8.5,11.2c0.1,0.2,0.1,0.4,0.2,0.7c0.1,0.7,0.2,1.5,0.3,2.2c0,3.8,0,7.6-0.1,11.4
		c-0.1,4.3-1.5,8.3-3.8,11.9c-2.3,3.6-5.8,5.4-9.7,6.1c-4.7,0.9-9.6,1-14.2-0.6c-3.3-1.1-6.2-3.3-7.6-6.8c-0.6-1.4-1.9-2.5-1.7-4.1
		C235.5,489.8,235.1,488.8,234.7,487.8z"/>
	<path class="st4" d="M884,484.6c0-2,0-3.6,0-5.3c0-1.2,0.4-1.8,1.6-1.7c0.7,0,1.4,0,2.1,0c2.6,0.1,5.8-1,7.6,0.5
		c1.8,1.4,0.5,4.7,0.7,7.1c0.6,5.6,5.4,8,9.9,5c1.9-1.3,3.5-5.5,3-7.9c-0.8-3.8-2.2-7.3-4.8-10c-2.6-2.7-5.1-5.5-8.1-7.8
		c-5-4-8.9-9.3-10.9-15.2c-1.3-4-1.5-8.6-0.7-13c0.6-3.2,0.7-6.4,2.6-9.2c2.1-3.2,4.9-5.2,8.5-6.1c4.7-1.2,9.4-1.5,14.3,0.1
		c5.7,1.8,9.1,5.5,10.8,11.1c0.9,3,1.2,6,1.1,9.1c0,1.3-0.4,2-1.8,1.9c-2.8-0.1-5.7-0.1-8.5,0c-1.6,0.1-1.7-0.7-1.7-1.9
		c0-2.3,0.2-4.6-1.4-6.7c-1.8-2.2-4.5-3.5-7.1-2.6c-2.3,0.8-3.7,2.5-4,5.1c-0.5,4.4,0.1,8.5,2.9,12c2.2,2.8,4.5,5.4,7.3,7.7
		c5.4,4.6,10.5,9.6,12.9,16.5c2.7,7.7,2.5,15.2-1.7,22.5c-2.5,4.3-6.5,6.4-11.1,7.1c-4.2,0.6-8.4,0.4-12.5-0.6
		c-5.4-1.3-8-5.3-10-9.9C883.9,489.6,884.2,486.9,884,484.6z"/>
	<path class="st5" d="M390.6,461.1c0-12.2,0-24.4,0-36.6c0-3.8-0.5-3.6,3.7-3.6c5.5,0,10.9-0.1,16.4,0c10.9,0.3,16.8,6.6,17.5,16.8
		c0.4,5.5,0.3,11.1,0,16.7c-0.3,6.5-3,11.8-8.6,15.3c-2.4,1.5-5.4,1.5-8.1,1.8c-1.9,0.1-3.8,0.1-5.7,0c-1.9-0.1-2.4,0.6-2.4,2.4
		c0.1,6.8,0,13.5,0,20.3c0,1.8,0,3.6,0,5.3c-0.1,2.4-0.1,2.4-2.7,2.5c-2.5,0-5,0-7.5,0c-2.5,0-2.6-0.1-2.6-2.5c0-3,0-5.9,0-8.9
		C390.6,480.7,390.6,470.9,390.6,461.1z M403.4,446.1c0,2.6-0.1,5.2,0,7.8c0.1,2-1,4.6,0.6,5.7c1.7,1.2,4.4,0.5,6.6,0.2
		c2.9-0.4,4.6-1.9,4.8-4.8c0.5-5.9,0.5-11.8,0-17.7c-0.3-3.1-2.1-4.6-5.2-4.8c-1.5-0.1-3.1,0.1-4.6-0.1c-1.8-0.1-2.2,0.7-2.2,2.3
		C403.4,438.5,403.4,442.3,403.4,446.1z"/>
	<path class="st8" d="M62,624.4c-3.8-6.2-6.5-12.8-9.2-19.5c-3.3-8.2-6.2-16.6-8.6-25.1c-2.3-7.9-4.5-15.8-6.3-23.8
		c-2.4-10.6-4.2-21.3-6.1-32c-2.3-12.9-4-25.9-5.4-39c-1.8-15.4-3-30.9-4-46.3c-0.5-7.3-0.7-14.7-1-22c-0.2-4.7-0.3-9.5-0.5-14.2
		c0.4-0.5,0.8-1,1.1-1.4c0.3,3.3,0.6,6.6,0.8,10c0,1.3-0.1,2.6,0,3.9c0.8,9.1,1.6,18.1,2.4,27.2c0.1-10.4-0.4-20.8-1.1-31.1
		c0-3.4,0.2-6.9-0.5-10.3l0.1,0c0-1.5,0.1-3,0.1-4.5c0.4,0,0.7,0,1.1,0c1,15.2,2.1,30.5,3.8,45.6c2.2,20.1,5,40.2,8.5,60.1
		c6,34.2,13.7,68,23.4,101.3c1.6,5.4,3.3,10.9,4.9,16.3c-0.6,0-1.3,0-1.9,0c-1.2-1.4-1.2-3.4-2.2-5c-0.8-2.4-0.8-2.4-2.2-3.9
		c0,0.4-0.1,0.8,0,1.1c0.3,1,0.7,2,1,2.9c0.9,3,1.8,6.1,2.6,9.1C62.5,623.8,62.2,624.1,62,624.4z M58.7,609.2
		c0.5-0.5,0.4-1.1,0.1-1.6c-0.2-0.4-0.2-1.1-1-1C57.5,607.7,57.6,608.6,58.7,609.2z"/>
	<path class="st6" d="M809.4,467.2c0,7-0.1,14-0.2,21c0,1.5,0.5,2.1,2,2c5.6-0.1,11.1,0,16.7,0c3.3,0,3.3,0,3.3,3.4c0,2,0,4,0,6
		c0,1.6-0.6,2.4-2.3,2.3c-10.2,0-20.4,0-30.6,0c-1.3,0-2-0.4-1.9-1.8c0-0.7,0-1.4,0-2.1c0-24.5,0-49,0-73.6c0-0.6,0-1.2,0-1.8
		c-0.1-1.3,0.4-1.9,1.8-1.9c10.3,0,20.6,0,30.9,0c1.5,0,2.1,0.5,2.1,2c-0.1,2.4,0,4.7,0,7.1c0,2.4-0.1,2.4-2.7,2.4
		c-5.1,0-10.2,0-15.3,0c-0.7,0-1.4,0-2.1,0c-1.3-0.1-1.9,0.4-1.9,1.8c0,6.3,0,12.6,0,18.8c0,1.6,0.7,2,2.2,2c4.3-0.1,8.5,0,12.8,0
		c1.7,0,2.6,0.3,2.5,2.3c-0.2,2.4-0.1,4.7,0,7.1c0.1,1.8-0.6,2.2-2.3,2.2c-4.7-0.1-9.5,0-14.2,0
		C809.6,466.5,809.3,466.6,809.4,467.2z"/>
	<path class="st6" d="M964.5,467.2c-0.5,7.1-0.1,14.2-0.2,21.3c0,1.6,0.9,1.7,2,1.7c5.3,0,10.7,0,16,0c0.8,0,1.7,0,2.5,0
		c1,0.1,1.5,0.6,1.5,1.6c0,2.7,0,5.4,0,8.2c0,1.5-0.9,2-2.3,2c-10.2,0-20.4,0-30.6,0c-1.3,0-2-0.4-1.9-1.8c0-0.7,0-1.4,0-2.1
		c0-24.4,0-48.8,0-73.2c0-0.8,0-1.7,0-2.5c0-1,0.4-1.5,1.5-1.5c1.8,0,3.6,0,5.3,0c8.4,0,16.8,0,25.2,0c2.7,0,2.7,0.1,2.7,2.8
		c0,2.1-0.1,4.3,0,6.4c0.1,1.9-0.5,2.5-2.4,2.4c-5.2-0.1-10.4,0-15.6,0c-0.7,0-1.4,0.1-2.1,0c-1.4-0.1-1.9,0.5-1.9,1.8
		c0,6.3,0,12.6,0,18.8c0,1.7,0.8,1.9,2.2,1.9c4.4-0.1,8.8,0,13.2,0c1.5,0,2.1,0.4,2.1,2c-0.1,2.5-0.1,5,0,7.5
		c0.1,1.8-0.7,2.1-2.3,2.1c-4.7,0-9.5,0.1-14.2,0.1C964.7,466.6,964.4,466.7,964.5,467.2z"/>
	<path class="st0" d="M488.3,315.6c8.9,0,17.8,0,26.7,0c2.7,0,2.7,0.1,2.8,2.8c0,6.3,0,12.6,0,18.8c0,2.5-0.1,2.6-2.6,2.6
		c-17.9,0-35.8,0-53.7,0c-2.5,0-2.6-0.1-2.6-2.6c0-6.3,0-12.6,0-18.8c0-2.7,0.1-2.8,2.7-2.8C470.5,315.6,479.4,315.6,488.3,315.6z"
		/>
	<path class="st8" d="M958.1,276.6c-0.7-1.4-1.4-2.8-2.1-4.3c-0.7-2.4-1.5-4.7-2.2-7.1c-1.4-5.7-2.8-11.4-4.2-17.1
		c0-1.2,0.3-2.5-0.3-3.7c-0.4,2-0.4,2,0.3,3.7c-0.1,4.3,1.1,8.3,1.8,12.5c0.2,1,1.1,2.2-0.4,3.1c-0.4-0.7-0.8-1.5-1.2-2.2
		c-3.3-7.7-4.1-16-5.1-24.2c-3-24.4-2.8-48.9-1.8-73.4c1-23.2,3.2-46.3,6-69.3c1.2-10,2.4-20,4.2-29.9c0.4,0,0.8,0,1.1,0
		c-0.8,7-1.9,14-2.5,21.1c-0.5,6-1.7,11.9-1.4,17.9c-0.4,0.3-0.7,0.6-0.8,1.1c-0.5,5.6-1,11.2-1.4,16.8c-0.1,0.9-0.3,1.9,0.4,2.9
		c0.6-5,1.3-9.9,1.6-14.8c0.1-2.1,1-4.1,0.6-6.3c0.1-2.5,0.5-4.9,0.8-7.4c1.3-11.2,2.9-22.4,4.5-33.6c0.4,0,0.8,0,1.2,0
		c-2,16.9-3.9,33.9-5.3,50.8c-3,35.4-4.5,70.9-2.3,106.4c1.2,18.9,3.7,37.7,9.3,55.9C958.7,276,958.4,276.3,958.1,276.6z"/>
	<path class="st4" d="M929.5,461.3c0-12.6,0-25.1,0-37.7c0-2.7-0.1-2.7,2.7-2.7c2.7,0,5.4,0,8.2,0c1.4,0,2,0.5,1.9,1.9
		c-0.1,0.7,0,1.4,0,2.1c0,24.3,0,48.6,0,72.8c0,0.2,0,0.5,0,0.7c0,3.5,0,3.5-3.6,3.5c-2.5,0-5,0-7.5,0c-1.2,0-1.8-0.4-1.7-1.6
		c0-0.8,0-1.7,0-2.5C929.5,485.7,929.5,473.5,929.5,461.3z"/>
	<path class="st8" d="M76.2,635.4c8,7.7,16.1,15.3,24.8,22.3c20.3,16.4,41.9,30.5,66.3,40.2c4.4,1.7,8.9,3.2,13.4,4.8
		c-0.2,0.4-0.5,0.9-0.7,1.3c-3.6-0.5-7.1-1.4-10.4-2.9c-0.8-0.3-1.5-0.6-2.3-0.7c-2.7-1.5-5.7-2.1-8.5-3.2c-2.7-1.1-5.5-2.1-8.2-3.1
		c-0.1,0.2-0.2,0.4-0.2,0.7c5,2.5,10,5,15.4,6.6c3.7,1.8,7.6,2.9,11.4,4.3c-0.2,0.4-0.4,0.9-0.7,1.3c-4-0.4-7.8-1.8-11.6-3
		c-12.3-4-24.2-8.9-35.4-15.2c-9.8-5.5-19-11.7-27.6-18.9c-6-5-11.6-10.3-17.1-15.9c-4.4-4.5-8.2-9.4-12.1-14.3
		c-0.6-0.7-0.6-1.8-1.4-2.4c0.2-0.2,0.4-0.4,0.7-0.6c3.5,3.8,7.2,7.4,11.1,10.7c0.2,0.2,0.6,0.3,1.3-0.3c-2.7-3.5-5.4-7-8.2-10.5
		C76.2,636.1,76.2,635.7,76.2,635.4z M94,657.1c-0.1-0.4-0.3-0.6-0.7-0.7c-0.2-0.3-0.4-0.5-0.6-0.8c0-0.2-0.1-0.3-0.2-0.4
		c-1.5-1.5-2.7-3.3-4.6-4.5c-0.3-0.3-0.6-0.6-0.9-0.8c-0.2-0.3-0.4-0.9-0.9-0.4c-0.5,0.4,0.1,0.7,0.3,1c0.1,0.2,0.2,0.3,0.3,0.4
		c1.4,2,3.5,3.3,5.2,4.9c0.1,0.1,0.2,0.2,0.4,0.2c0.3,0.2,0.5,0.4,0.8,0.6c0.1,0.4,0.3,0.6,0.7,0.7c0.2,0.2,0.5,0.5,0.7,0.7
		c0.2,0.1,0.3,0.2,0.5,0.2c-0.1-0.2-0.2-0.3-0.2-0.5C94.5,657.5,94.2,657.3,94,657.1z M147.7,693.1c-0.1-0.1-0.1-0.2-0.2-0.2
		c-0.1,0-0.3,0-0.3,0c-0.2,0.2-0.1,0.3,0.2,0.3C147.5,693.2,147.6,693.1,147.7,693.1z M149.1,693.6c-0.1,0.1-0.2,0.1-0.2,0.2
		c0.1,0.1,0.1,0.2,0.2,0.2c0.1,0,0.2-0.1,0.2-0.2C149.2,693.7,149.1,693.6,149.1,693.6z"/>
	<path class="st9" d="M325.7,440.9c0.3,3.7,0.3,7.3,0,11c-3.1,1-6.2,1.9-9.2,2.9c-2.3-2.8-4.9-5-8.7-5.5c-5.8-0.7-10.8,0.5-14.6,5.8
		c0-3.7,0-7.4,0-11.1c0-2.7-0.1-5.4,0.7-8.1c0.9-3,2.6-4.3,5.6-4.5c4.5-0.3,6.8,1.7,7.2,6.3c0.4,4.6,0.4,4.6,4.9,4.6
		c2.4,0,4.7,0,7.1,0c1,0.6,1.9,0.5,2.9,0.1C322.9,441.8,324.3,441.4,325.7,440.9z"/>
	<path class="st8" d="M234.7,487.8c0.4,1,0.8,2.1,0.7,3.2c-2.4,0.2-4,1.9-5.9,3c-8.8,5-16.9,11-24.1,18.3c-1.1,1.1-2.6,2.2-2.8,3.9
		c-0.9,0.3-1.8,0.5-2.2,1.5c-0.5,0.7-1.1,1.4-1.6,2.2c-1.7-1.4-0.4-3.6-1.6-5.1c-0.4-0.5-0.3-1.5-0.5-2.3c-0.5-1.7-0.2-3.2,1.4-4.6
		c2.1-1.9,4.4-3.3,6.8-4.6c8.8-4.7,17.6-9.4,26.3-14.2C232.3,488.4,233.4,488,234.7,487.8z"/>
	<path class="st8" d="M572.6,384.5c0-1.1,0-2.2,0.1-3.4c12.8-3.1,25.5-6.1,38.3-9.2c1.2-0.1,2.4-0.2,3.6-0.2c1,0.5,2,1.1,3,1.6
		c-0.1,0.2-0.2,0.5-0.3,0.7c-8.4,2.2-16.8,4.2-25.2,6.1c-5.5,1.3-10.9,3-16.6,3.9c-0.8,0.1-1.4,0.9-2.3,0.8
		C573.1,384.6,572.9,384.5,572.6,384.5z"/>
	<path class="st10" d="M539.7,389.4c0,1.2,0.1,2.3,0.1,3.5c-0.2,0-0.3,0-0.5,0.1c-4.9,0.4-9.4,2.5-14.2,3.5
		c-6.7,1.4-13.4,3-20.1,4.6c0.5-0.8,0.9-1.5-0.6-1.4c0.1-1.9,1.6-1.9,3-2.2c9.1-2.3,18.2-4.6,27.3-7c1.5-0.4,3-0.8,4.4-1.2
		C539.3,389.4,539.5,389.4,539.7,389.4z"/>
	<path class="st8" d="M666.5,361.4c0.1-0.1,0.2-0.2,0.3-0.2c3.6-2.3,6.9-4.7,11.5-4.7c3,0,6.1-1,9-1.9c4.4-1.3,8.8-1.7,13.2-0.4
		c0,0.4,0,0.9,0,1.3c-2.9,0.1-5.7,0.8-8.6,1.4c-3.1,0.6-6.1,1.5-9.1,2.2c-5.4,1.2-10.9,2.3-16.4,3.4
		C666.5,362.1,666.5,361.7,666.5,361.4z"/>
	<path class="st7" d="M956.6,26.1c2-1.1,2.8-3.7,5.2-4.4c1.1,0.4,1.6,1.3,1.8,2.3c0.4,1.3,0,2.2-1.6,2.3c-1.3,5.2-2.2,10.6-3.1,15.9
		c-0.8,4.9-1.6,9.7-2.3,14.6c-0.4,0-0.7,0.1-1.1,0.1c0.7-5.5,1.4-11,2.1-16.5c1.2-3.5,1.2-7.3,1.8-11c0.1-0.4,0.4-1.3-0.7-1
		C957.3,28.3,957.1,27,956.6,26.1z"/>
	<path class="st10" d="M956.6,56.8c0.8-4.9,1.5-9.7,2.3-14.6c0.9-5.3,1.8-10.7,3.1-15.9c-0.6,7.9-2,15.7-3,23.6
		c-0.5,4.2-0.8,8.5-1.8,12.6c-0.4,0-0.8,0-1.2,0C955.7,60.6,956.9,58.8,956.6,56.8z"/>
	<path class="st11" d="M24.4,327.8c0.7,1.1,1.1,2.3,1.2,3.6c-2,0.3-1.4,1.9-1.4,3.1c0,7.7,0,15.4,0,23.1c0,2.7,0.2,5.4-0.2,8.2
		c-0.2,0-0.3-0.1-0.4-0.2c-1.2-0.8-0.8-2.1-0.8-3.2c0-4.8-0.4-9.7,0.1-14.5c0.6-6,0.5-11.9,0.6-17.9
		C23.6,329.1,23.6,328.3,24.4,327.8z"/>
	<path class="st11" d="M20.5,377.6c-0.9-1-0.6-2.2-0.6-3.4c0-9.3,0-18.6,0-27.9c0.5,0,0.9,0,1.4,0c0,10.4,0,20.9-0.1,31.3
		C21,377.7,20.8,377.6,20.5,377.6z"/>
	<path class="st12" d="M493.7,244c-0.5,0.8-0.5,1.8-0.5,2.7c0,7.2,0,14.4,0,21.6c0,1.1-0.1,2.1,0.7,3c-0.7,0.3-1.2,0-1.3-0.7
		c-0.1-0.7-0.1-1.4-0.1-2.1c0-7.3,0-14.6,0-21.9C492.5,245.7,491.7,244.2,493.7,244z"/>
	<path class="st8" d="M246.9,484.5c-0.2-0.9-0.3-1.8-0.1-2.7c4.3-2,8.5-3.9,12.8-5.9c0.2,1,0.2,2.1,0,3.1
		C255.4,480.8,251.1,482.6,246.9,484.5z"/>
	<path class="st13" d="M348,372.6c0.7,1.1,0.3,2.3,0.4,3.4c0.1,7.9,0.1,15.8,0.1,23.6c-0.5,0-0.9,0-1.4,0c0.1-9,0.1-18,0.2-27.1
		C347.5,372.6,347.7,372.6,348,372.6z"/>
	<path class="st8" d="M743.7,342.2c0,1.1,0.1,2.2,0.1,3.3c-0.2,0-0.4,0.1-0.6,0.2c-2.4,0.4-4.9,0.4-7,1.7c-1.2,0.7-2.6-0.1-3.7,0.5
		c-0.7-0.2-0.8-0.8-0.6-1.4c1.8-0.7,3.6-1.6,5.1-2.9C739.2,343.2,741.5,342.7,743.7,342.2z"/>
	<path class="st10" d="M23.6,365.6c0.1,0.1,0.3,0.1,0.4,0.2c0,8.7,0.4,17.5,0.8,26.2c0.1,1.4,0,2.8,0,4.2c-0.4,0-0.7,0-1.1,0
		c-0.5-8.4-0.7-16.9-0.2-25.3C23.6,369.1,23.6,367.3,23.6,365.6z"/>
	<path class="st10" d="M957.6,40.4c-0.7,5.5-1.4,11-2.1,16.5c-0.4,2.6-0.8,5.2-1.2,7.8c-0.4,0-0.8,0-1.1,0
		c0.3-5.8,1.6-11.4,2.4-17.1c0.3-2.3,0.8-4.7,1.1-7C957,40.5,957.3,40.5,957.6,40.4z"/>
	<path class="st10" d="M180,704.1c0.2-0.4,0.5-0.9,0.7-1.3c5,1.2,10,2.3,15,3.5c-0.3,0.5-0.5,0.9-0.8,1.4c-2.1-1.2-4.5-0.6-6.8-1.4
		C185.5,705.3,182.5,705.7,180,704.1z"/>
	<path class="st10" d="M20.5,377.6c0.3,0,0.5,0.1,0.8,0.1c0.2,6.6,0.1,13.2,0.7,19.8c0.1,1.3,0,2.7,1.6,3.2c0,0-0.1,0-0.1,0
		c-0.6-0.4-1.1-0.2-1.6,0.3c-0.4,0.5-0.8,1-1.1,1.4c-0.5-7-0.2-14-0.3-21.1C20.5,380.2,20.5,378.9,20.5,377.6z"/>
	<path class="st11" d="M949.5,248.2c1.4,5.7,2.8,11.4,4.2,17.1c-0.9,0.4-0.4,1.8-1.4,2.2c-0.4-0.8-0.6-1.7-1.4-2.2
		c0-0.5,0-0.9,0-1.4c1.4-0.9,0.5-2.1,0.4-3.1C950.6,256.5,949.5,252.4,949.5,248.2C949.5,248.2,949.5,248.2,949.5,248.2z"/>
	<path class="st10" d="M912.9,311.4c-0.4-0.3-0.4-0.7-0.4-1.2c0.9-0.2,1.8-0.3,2.7-0.5c0.4-0.1,0.8-0.5,0.7-1
		c-0.1-0.6-0.6-0.6-1.1-0.5c-1,0.2-2.1,0.3-3.1,0.5c-0.3-0.1-0.5-0.3-0.4-0.6c0.1-0.1,0.3-0.2,0.4-0.2c1,0.2,2-0.2,2.9-0.6
		c0.7,0.1,1.3-0.1,2-0.4c1.2-0.6,2-0.1,2.3,1.1c-0.8,1.5-0.5,3.3-1.6,4.7c-0.7,0.1-1.6,0.5-1.8-0.3
		C915.2,310.2,914,310.9,912.9,311.4z"/>
	<path class="st11" d="M165.7,701.3c-5.4-1.5-10.4-4.1-15.4-6.6c0.1-0.2,0.2-0.4,0.2-0.7c2.7,1,5.5,2,8.2,3.1
		c2.8,1.2,5.8,1.8,8.5,3.2C166.7,700.6,166,700.6,165.7,701.3z"/>
	<path class="st10" d="M176.4,706.9c0.2-0.4,0.4-0.9,0.7-1.3c4.3,1.1,8.6,2.2,12.9,3.2c0.7,0.2,1.4,0.2,2.1,0.2
		c-0.3,0.5-0.5,0.9-0.8,1.4c-4.7-0.8-9.4-2.3-14.2-2.9C176.9,707.5,176.7,707.1,176.4,706.9z"/>
	<path class="st8" d="M272.6,473.2c-0.1-0.7-0.2-1.5-0.3-2.2c0.5-0.1,1.1-0.2,1.5-0.7c2.1-0.9,4.4-1.6,6.4-2.9
		c0.2,1.1,0.2,2.2,0,3.3C277.5,470.8,275.2,472.6,272.6,473.2z"/>
	<path class="st10" d="M316.5,454.8c3.1-1,6.2-1.9,9.2-2.9c0,0.8,0,1.6,0,2.4c-3,0.2-5.5,2-8.4,2.3C317,456,316.8,455.4,316.5,454.8
		z"/>
	<path class="st7" d="M944.6,391.6c3.4,2.4,7,4.4,10.7,6.4c-1.2,1.6-2.6,0.9-3.7,0.1c-1.8-1.4-3.7-2.4-5.5-3.6
		C945,393.8,944.3,393,944.6,391.6z"/>
	<path class="st11" d="M194.8,707.6c0.3-0.5,0.5-0.9,0.8-1.4c4.8,0.7,9.6,1.2,14.3,2.4C204.8,709.2,199.9,707.9,194.8,707.6z"/>
	<path class="st11" d="M191.3,710.4c0.3-0.5,0.5-0.9,0.8-1.4c3.4,0.6,6.9,1.5,10.4,1.4c1.6-0.1,2.9,0.8,4.4,1.1
		c-2,0.3-3.9,0.4-5.9,0.1C197.8,711.2,194.5,710.8,191.3,710.4z"/>
	<path class="st10" d="M958.1,276.6c0.3-0.3,0.6-0.6,0.9-0.9c1.2,2.7,2.4,5.3,3.5,8c-0.6,0.2-1.3,0.4-1.9,0.7
		c0.1-2.2-0.8-3.9-2.4-5.3C958.7,278.2,957.9,277.4,958.1,276.6z"/>
	<path class="st7" d="M729.9,305.1c-1.4-3.5-3.2-6.7-5.2-9.9c1-0.1,1.8,0,2.4,1c1.4,2.4,2.9,4.8,3.7,7.5
		C731.1,304.6,730.7,304.9,729.9,305.1z"/>
	<path class="st7" d="M944.6,293c-1.7,1.7-3.5,3.5-5.2,5.2c-0.7-0.3-1.2-0.7-0.9-1.6C939.3,294.1,941.2,293,944.6,293z"/>
	<path class="st10" d="M128.8,436.1c0.2,0.2,0.5,0.4,0.7,0.7c-0.1,0.2-0.1,0.4-0.2,0.6c-3.9,0.7-7.8,1.4-11.6,2
		C121.4,438.1,125,436.7,128.8,436.1z"/>
	<path class="st7" d="M781.2,288.1c-2,1.9-3.9,3.8-5.9,5.7C775.3,289,776.4,288,781.2,288.1z"/>
	<path class="st11" d="M957.6,40.4c-0.3,0.1-0.6,0.1-0.9,0.2c0.2-4.1,1.4-8.1,2.1-12.2c1.1-0.3,0.8,0.7,0.7,1
		C958.9,33.1,958.8,36.9,957.6,40.4z"/>
	<path class="st9" d="M20.7,330.7c-0.1-3.6-0.3-7.2,1.4-11.4c0,4.1,0,7.5,0,10.9c0,0.4-0.4,0.8-0.6,1.2
		C21.1,331.2,20.9,331,20.7,330.7z"/>
	<path class="st7" d="M724.7,295.2c-1.9-1.9-3.9-3.8-5.8-5.7C723.7,289.4,724.8,290.5,724.7,295.2z"/>
	<path class="st7" d="M958.2,279c1.7,1.4,2.5,3.1,2.4,5.3c-1.8,0.7-3.6,1.4-5.4,2c0.1-0.4,0.1-1.3,0.3-1.3c3.3-0.6,2.5-3.3,2.6-5.4
		C958.1,279.5,958.2,279.3,958.2,279z"/>
	<path class="st7" d="M912.9,311.4c1.2-0.5,2.3-1.3,2.7,0.9c0.2,0.8,1.2,0.4,1.8,0.3c0,2-1.1,2.9-2.9,3.2
		C913.7,314.4,913.3,312.9,912.9,311.4z"/>
	<path class="st7" d="M968,374.2c-2.2-1.2-3.9-2.8-5.1-5C966.7,369.2,967.8,370.3,968,374.2z"/>
	<path class="st7" d="M1001.6,368.4c-0.9,2.6-2.6,4.5-5,5.9C996.6,371.5,998.2,369.6,1001.6,368.4z"/>
	<path class="st7" d="M952.4,267.5c1-0.4,0.5-1.7,1.4-2.2c0.7,2.4,1.5,4.7,2.2,7.1C953.9,271.4,952.2,270.1,952.4,267.5z"/>
	<path class="st7" d="M880.7,373.4c-2.2,2.2-4.9,3.5-8,4.1c0.2-0.4,0.2-1.1,0.5-1.2C875.5,374.9,877.7,373.2,880.7,373.4z"/>
	<path class="st7" d="M1004.6,399.5c2.5-1.2,5-2.4,7.5-3.7c0,0.6,0,1.6-0.1,1.6C1009.3,397.8,1007.7,401.3,1004.6,399.5z"/>
	<path class="st7" d="M858.5,377.6c-2.9-0.4-5.4-1.5-7.5-3.5c2.3-0.4,4.3,0.9,6.4,1.5C858.2,375.9,858.4,376.8,858.5,377.6z"/>
	<path class="st10" d="M666.5,361.4c0,0.4,0,0.8,0,1.2c-2.1,1.1-3.8,3-6.5,3C661.8,363.7,663.9,362.1,666.5,361.4z"/>
	<path class="st7" d="M1028.9,378.8c0.8-1.9,1.7-3.8,2.9-5.6C1033.3,376,1032.3,378,1028.9,378.8z"/>
	<path class="st11" d="M122.4,441.3c-2.4,1.3-5.1,1.3-7.8,1.4c2.4-1.4,5.2-1.9,7.9-2.5C122.4,440.6,122.4,441,122.4,441.3z"/>
	<path class="st7" d="M912.3,378.2c0.8-2.1,1.8-4.1,3-6C916.5,375.6,915.7,377.3,912.3,378.2z"/>
	<path class="st11" d="M614.6,371.7c-1.2,0.1-2.4,0.2-3.6,0.2c0.2-1.3-1.5-1.2-2-2.3C611.8,368.2,613.1,370.1,614.6,371.7z"/>
	<path class="st7" d="M919,307.9c-0.4-1.2-1.2-1.7-2.3-1.1c-0.6,0.3-1.3,0.5-2,0.4c0.1-1,0.5-1.8,1.5-2c1.1-0.2,2.4-0.5,3.3,0.3
		C920.7,306.5,920.8,307.5,919,307.9z"/>
	<path class="st11" d="M805.2,329.6c-2.5,1.3-5,2.4-8.4,1.7C799.7,329.6,802.4,329.6,805.2,329.6z"/>
	<path class="st10" d="M63.5,619.4c0.6,0,1.3,0,1.9,0c0.9,1.5,1.4,3.3,1.6,5l-0.1,0.1c-1.3-0.1-1.6-1.2-2.1-2.1
		C64.3,621.5,63.9,620.4,63.5,619.4z"/>
	<path class="st7" d="M909.6,304.4c-1.3-1.9-2.6-3.7-3.8-5.6C908.8,299.5,910.3,301.8,909.6,304.4z"/>
	<path class="st10" d="M122.4,441.3c0-0.4,0-0.7,0.1-1.1c2-0.2,3.7-1.4,5.7-1.4c0.4,0.6,1,0.6,1.6,0.8
		C127.4,440.9,124.8,440.7,122.4,441.3z"/>
	<path class="st11" d="M20.7,330.7c0.2,0.2,0.4,0.4,0.7,0.6c0,4,0,8,0,11.9c-0.2,0-0.4,0-0.7,0C20.7,339.1,20.7,334.9,20.7,330.7z"
		/>
	<path class="st11" d="M774.6,337c-0.2-0.7-0.1-1.4,0.1-2c1.7,0.4,3.3-1.1,5.3-0.4C778.7,336.7,776.2,335.9,774.6,337z"/>
	<path class="st7" d="M929.9,369.7c0.8,1.9,1.6,3.9,2.4,5.8c-0.6,0-1.3,0.1-1.6-0.5c-0.6-1.3-1.2-2.7-1.7-4.1
		C928.8,370.4,929.4,369.9,929.9,369.7z"/>
	<path class="st7" d="M736.9,343.7c-1.5,1.3-3.2,2.2-5.1,2.9c-0.2-0.8-0.2-1.6,0-2.3c1.1,0.1,2-0.2,2.8-0.9
		C735.5,342.6,736.3,342.6,736.9,343.7z"/>
	<path class="st11" d="M129.4,437.3c0.1-0.2,0.1-0.4,0.2-0.6c2,0.2,3.8-1.2,6.2-0.5c-2,1-3.7,1.7-5.6,1.8
		C129.9,437.8,129.6,437.5,129.4,437.3z"/>
	<path class="st13" d="M709.1,450.2c0-2.6,0-2.6,1.1-5c-0.1,1.9,0.3,3.5-0.3,5C709.7,450.2,709.4,450.2,709.1,450.2z"/>
	<path class="st7" d="M1025.4,461.5c1.2-1.2,2.5-2.5,3.7-3.7C1029,461.4,1029,461.4,1025.4,461.5z"/>
	<path class="st7" d="M1026,383.2c0.8-1.6,1.7-3.1,2.9-4.4C1029.1,382.3,1029.1,382.4,1026,383.2z"/>
	<path class="st7" d="M1022.5,387.5c0.9-1.3,1.8-2.6,3.1-3.6C1025.5,387.3,1025.5,387.3,1022.5,387.5z"/>
	<path class="st7" d="M1017.7,293.3c-1.4-0.8-2.6-1.8-3.7-3C1017.5,290.2,1017.5,290.2,1017.7,293.3z"/>
	<path class="st7" d="M1023.4,299.6c-1.2-1.1-2.2-2.3-3.1-3.7C1023.4,296.1,1023.4,296.1,1023.4,299.6z"/>
	<path class="st7" d="M916,370.5c0.1-1.3,0.6-2.5,1.2-3.6C918.8,369,918.6,369.5,916,370.5z"/>
	<path class="st11" d="M60.1,614.5c-0.3-1-0.7-1.9-1-2.9c-0.1-0.3,0-0.7,0-1.1c1.4,1.5,1.4,1.5,2.2,3.9
		C60.9,614.4,60.5,614.4,60.1,614.5z"/>
	<path class="st7" d="M1017,392.5c1-1.2,2.2-2.2,3.6-3.1C1020.4,392.4,1020.4,392.4,1017,392.5z"/>
	<path class="st7" d="M933.1,307.2c-0.4,1.4-1,2.7-1.9,3.9C930.2,308.3,930.4,307.9,933.1,307.2z"/>
	<path class="st7" d="M950.9,263.8c0,0.5,0,0.9,0,1.4c-2.2-1.1-2.5-1.8-1.2-3.7C950.2,262.3,950.6,263.1,950.9,263.8z"/>
	<path class="st7" d="M838.9,286c-1.2,0.9-2.5,1.5-3.9,2C835.6,285.3,836.1,285,838.9,286z"/>
	<path class="st7" d="M890.5,286.4c-1.4-0.4-2.8-1-4-1.8C889.3,283.6,889.8,283.9,890.5,286.4z"/>
	<path class="st10" d="M62,624.4c0.3-0.3,0.5-0.6,0.8-0.8c0.7,1.3,1.3,2.7,1.1,4.5C62.9,626.9,62.1,625.8,62,624.4z"/>
	<path class="st7" d="M718.3,289c-1.2-0.6-2.5-1.3-3.5-2.3C716.9,285.9,717.6,286.3,718.3,289z"/>
	<path class="st7" d="M1069.1,365.9c0.9,1.9,0.2,2.7-0.9,4C1067.7,368.3,1068.2,367.4,1069.1,365.9z"/>
	<path class="st13" d="M696.3,474.3c0,0.9,0,1.8,0,3c-1.3-2-1.3-2-1.4-4.4C695.4,473.4,695.8,473.9,696.3,474.3z"/>
	<path class="st7" d="M885.5,366.2c-0.3,1.5-0.8,2.9-2,4C883.4,368.6,882.8,366.6,885.5,366.2z"/>
	<path class="st7" d="M822.5,298.1c-0.5,1.5-1.9,2.1-3,3.1C819.6,298.3,819.6,298.2,822.5,298.1z"/>
	<path class="st7" d="M928.1,363.4c0.5,1.1,0.9,2.3,0.9,3.6C926.9,365.8,926.6,364.6,928.1,363.4z"/>
	<path class="st7" d="M774.8,294.5c-0.3,1-1,1.8-1.9,2.7c-0.5-1.1-0.4-1.9-0.2-2.8C773.4,294.4,774.1,294.5,774.8,294.5z"/>
	<path class="st10" d="M175.3,377.4c-0.3,0.1-0.6,0.1-0.9,0.2c-1.4-0.5-1.2-1.8-1.5-2.8l0,0C173.9,375.4,174.8,376.3,175.3,377.4z"
		/>
	<path class="st7" d="M948.3,290.2c-0.8,1-1.8,1.7-3,2.2C945.6,290.2,945.6,290.2,948.3,290.2z"/>
	<path class="st7" d="M1029.8,428.5c-0.7-1-1.5-2.1-2.2-3.1C1029.9,425.6,1029.9,425.6,1029.8,428.5z"/>
	<path class="st10" d="M76.2,635.4c0,0.4-0.1,0.8-0.1,1.2c-0.9-0.6-1.6-1.5-2-2.7C75.4,633.9,75.8,634.6,76.2,635.4z"/>
	<path class="st7" d="M788.4,283.9c-0.9,0.7-2,1.2-3.1,1.5C785.9,283,785.9,282.9,788.4,283.9z"/>
	<path class="st7" d="M936.1,382.3c1,0.8,1.7,1.9,2.3,3C936.1,385.1,936.1,385.1,936.1,382.3z"/>
	<path class="st7" d="M1027,305.1c-0.7-0.6-1.1-1.3-1.3-2.2C1027.9,303.3,1028,303.4,1027,305.1z"/>
	<path class="st11" d="M71.2,637.2c-0.4-0.2-0.8-0.4-1.1-0.8c-0.2-0.2-0.3-0.7-0.1-0.9c0.3-0.5,0.8-0.3,1.1,0
		c0.3,0.3,0.5,0.7,0.7,1.1C71.6,636.8,71.4,637,71.2,637.2z"/>
	<path class="st11" d="M504.4,399.6c1.5-0.2,1.1,0.6,0.6,1.4c-0.3,0.4-0.7,0.8-1.1,0.3C503.4,400.7,503.7,400.1,504.4,399.6z"/>
	<path class="st7" d="M959.2,362.8c-0.6-0.6-0.7-1.4-0.8-2.1c0.7,0,1.4-0.1,1.6,0.8C960.2,362.1,959.8,362.5,959.2,362.8z"/>
	<path class="st11" d="M177.7,385.6c-0.9-0.5-1.6-1.2-2.1-2.2c0.6,0,1.1-0.1,1.7-0.1c0.7,0.4,0.7,1.2,0.9,1.9
		C178,385.3,177.8,385.5,177.7,385.6z"/>
	<path class="st7" d="M1031,470.9c-0.3-0.7-0.5-1.4-0.8-2.1c0.7,0,1.5-0.1,1.7,0.8C1032,470.3,1031.5,470.7,1031,470.9z"/>
	<path class="st7" d="M962.9,369.2c-0.8-0.5-1.3-1.3-1.6-2.2C963,367,963.1,368,962.9,369.2z"/>
	<path class="st7" d="M1030.2,455.7c0.3-0.8,0.3-1.8,1-2.4C1032,455.5,1032,455.5,1030.2,455.7z"/>
	<path class="st7" d="M898.2,291.2c-0.9-0.4-1.7-0.9-2.2-1.7C897.2,289.4,898.4,289.5,898.2,291.2z"/>
	<path class="st7" d="M907.9,384.6c0.4-0.9,0.9-1.6,1.7-2.2C909.7,383.7,909.6,384.8,907.9,384.6z"/>
	<path class="st11" d="M200.5,517.6c0.4-1,1.3-1.2,2.2-1.5C202.7,517.8,201.5,517.7,200.5,517.6z"/>
	<path class="st7" d="M1014,394.6c0.6-0.8,1.3-1.3,2.3-1.6C1016.4,394.7,1015.2,394.7,1014,394.6z"/>
	<path class="st7" d="M951.7,288.1c-0.3,0.6-0.8,0.7-1.4,0.8C950.4,288.1,950.3,286.8,951.7,288.1z"/>
	<path class="st7" d="M894,288.3c-0.6-0.1-1.1-0.3-1.4-0.8C894,286.1,893.9,287.4,894,288.3z"/>
	<path class="st7" d="M884.7,284.1c-0.4-0.1-0.9-0.3-1.3-0.4c0.1-0.5,0.2-1,0.7-1C884.9,282.8,884.7,283.5,884.7,284.1z"/>
	<path class="st11" d="M229.8,422.6c0-0.3,0-0.6-0.1-0.8c0.6,0,1.3,0.1,1.1,0.8C230.7,423.2,230.1,423,229.8,422.6z"/>
	<path class="st9" d="M21.3,346.4c-0.5,0-0.9,0-1.4,0c0.1-0.5,0-1.3,0.8-1.1C21.3,345.3,21.3,345.9,21.3,346.4z"/>
	<path class="st7" d="M961,400.1c0.4,0.1,0.9,0.3,1.3,0.4c-0.1,0.5-0.2,1-0.7,1C960.8,401.4,961,400.6,961,400.1z"/>
	<path class="st7" d="M934,379c0.6,0.3,0.7,0.8,0.8,1.4C934,380.3,932.7,380.5,934,379z"/>
	<path class="st11" d="M172.2,380.4c-0.2,0.1-0.4,0.1-0.6,0.1c-0.5-0.3-1.1-0.9-0.3-1.3C171.9,378.9,172.1,379.8,172.2,380.4z"/>
	<path class="st11" d="M169.3,376.9c0.6,0,1.1,0.2,1.1,0.9c0,0.1-0.1,0.2-0.2,0.2C169.4,378.1,169.4,377.5,169.3,376.9L169.3,376.9z
		"/>
	<path class="st13" d="M273.8,470.2c-0.4,0.5-0.9,0.6-1.5,0.7c-0.1-0.2-0.1-0.4-0.2-0.7C272.7,470.3,273.3,470.3,273.8,470.2z"/>
	<path class="st14" d="M539.7,389.4c-0.2,0-0.4,0-0.6-0.1c0-0.4,0.2-0.8,0.6-1C539.7,388.7,539.7,389,539.7,389.4z"/>
	<path class="st11" d="M67,624.5c0.4,0.1,0.5,0.4,0.4,0.8c0,0.1-0.2,0.2-0.3,0.2c-0.4-0.2-0.4-0.5-0.3-0.9
		C66.9,624.6,67,624.5,67,624.5z"/>
	<path class="st10" d="M659.5,366.2c0.2-0.2,0.4-0.5,0.6-0.7C659.9,365.7,659.7,365.9,659.5,366.2z"/>
	<path class="st7" d="M911.8,307.8c-0.1,0.1-0.3,0.2-0.4,0.2c-0.1-0.3-0.2-0.5-0.3-0.8C911.3,307.4,911.6,307.6,911.8,307.8z"/>
	<path class="st13" d="M657.4,297C657.4,297,657.4,296.9,657.4,297c0.4-0.2,0.8-0.3,1.2-0.4c0.2,0.4,0,0.7-0.4,1
		C657.9,297.3,657.6,297.1,657.4,297z"/>
	<path class="st11" d="M169.3,376.9c-0.1-0.1-0.2-0.2-0.3-0.3c0.1,0,0.1,0,0.2,0.1C169.3,376.7,169.3,376.8,169.3,376.9
		C169.3,376.9,169.3,376.9,169.3,376.9z"/>
	<path class="st11" d="M172.9,374.8c-0.3,0-0.4-0.1-0.3-0.4c0,0,0.2,0,0.2,0.1C172.8,374.6,172.8,374.7,172.9,374.8
		C172.9,374.8,172.9,374.8,172.9,374.8z"/>
	<path class="st11" d="M617.3,374c0.1-0.2,0.2-0.5,0.3-0.7C618.1,373.8,617.9,374,617.3,374z"/>
	<path class="st10" d="M73.3,632.2c-0.1,0-0.2-0.1-0.3-0.1C73.1,632.2,73.2,632.2,73.3,632.2L73.3,632.2z"/>
	<path class="st13" d="M572.6,384.5c0.2,0,0.4,0.1,0.6,0.3c-0.2,0.2-0.4,0.5-0.6,0.7C572.7,385.1,572.7,384.8,572.6,384.5z"/>
	<path class="st13" d="M809.4,467.2c0-0.6,0.3-0.7,0.8-0.6C809.9,466.8,809.6,467,809.4,467.2z"/>
	<path class="st7" d="M964.5,467.2c-0.1-0.5,0.2-0.7,0.7-0.5C964.9,466.9,964.7,467.1,964.5,467.2z"/>
	<path class="st13" d="M539.4,392.9c0.2-0.1,0.3-0.1,0.5-0.1c0,0.4,0,0.8-0.1,1.1C539.4,393.7,539.3,393.4,539.4,392.9z"/>
	<path class="st10" d="M73.3,632.2c0.1,0.1,0.2,0.3,0.3,0.4c-0.1,0-0.2-0.1-0.2-0.1C73.3,632.4,73.3,632.3,73.3,632.2
		C73.3,632.2,73.3,632.2,73.3,632.2z"/>
	<path class="st10" d="M658.3,366.5C658.3,366.5,658.2,366.5,658.3,366.5C658.2,366.5,658.3,366.5,658.3,366.5z"/>
	<path class="st13" d="M743.2,345.7c0.2-0.1,0.4-0.2,0.6-0.2c0,0.3,0,0.6,0,0.9C743.6,346.2,743.4,345.9,743.2,345.7z"/>
	<path class="st11" d="M224.9,423c-0.2,0-0.3-0.1-0.5-0.1c0.2,0,0.3,0,0.5,0C224.9,422.8,224.9,423,224.9,423z"/>
	<polygon class="st11" points="137.2,435.5 137.5,435.6 137.2,435.7 	"/>
	<path class="st11" d="M178.1,385.2c0.2,0.2,0.4,0.5,0.2,0.8c-0.3,0.3-0.5-0.1-0.6-0.3C177.8,385.5,178,385.3,178.1,385.2z"/>
	<path class="st13" d="M658.2,297.5c-0.2,0.3-0.2,1-0.7,0.7c-0.3-0.2-0.3-0.8-0.1-1.2C657.6,297.1,657.9,297.3,658.2,297.5z"/>
	<path class="st7" d="M840.5,330.3c0.4-6.5,2.3-12.2,6.5-17c5.8-6.6,13.2-8.9,21.8-7.2c9,1.8,14.5,7.5,17.3,16c0.7,2.3,1,4.6,1.3,7
		c0.2,1.3-0.3,1.8-1.5,1.7c-0.1,0-0.2,0-0.4,0c-14.7,0-29.3,0-44,0C841.3,330.7,841,330.5,840.5,330.3z"/>
	<path class="st11" d="M911.8,308.7c1-0.2,2.1-0.3,3.1-0.5c0.5-0.1,0.9-0.1,1.1,0.5c0.1,0.6-0.3,0.9-0.7,1c-0.9,0.2-1.8,0.3-2.7,0.5
		C911.9,309.9,911.8,309.3,911.8,308.7z"/>
	<path class="st7" d="M957.6,330.4c0.1-10.9,7-20.8,16.4-23.8c13-4.1,26.2,3.5,29.5,17c1.7,7.1,1.7,7.1-5.5,7.1
		c-12.2,0-24.4,0-36.6,0C960.1,330.7,958.8,331,957.6,330.4z"/>
	<path class="st7" d="M680.6,449.5c0,1.3,1.2,2.6,0.1,4c0,0-0.3,0-0.3-0.1c-1-1.2-0.4-2.6-0.5-3.9l0.3,0L680.6,449.5z"/>
	<path class="st13" d="M680.6,449.5l-0.3,0l-0.3,0c-0.2-0.9-0.2-1.8,0.3-2.9C680.8,447.6,680.8,448.5,680.6,449.5z"/>
	<path class="st9" d="M1006.5,444.8c0-3.3,0.1-6.6,0-9.9c0-1.7,0.3-2.7,2.3-2.5c1.4,0.1,2.8,0,4.2,0c3.1,0.2,5,1.5,5.5,4.5
		c0.9,5.1,0.9,10.3,0,15.5c-0.5,3-2.4,4.4-5.4,4.8c-6.5,0.9-6.7,0.7-6.7-5.7C1006.5,449.3,1006.5,447.1,1006.5,444.8z"/>
	<path class="st7" d="M600.3,444.9c0,2,0.1,4,0,6c-0.4,4.1-2.5,6.1-6.6,6.4c-5.6,0.4-5.6,0.4-5.6-5.1c0-5.8,0-11.6,0-17.4
		c0-1.7,0.4-2.7,2.4-2.5c1.2,0.1,2.4,0,3.5,0c3.9,0.1,5.9,1.8,6.3,5.7C600.4,440.4,600.3,442.7,600.3,444.9
		C600.3,444.9,600.3,444.9,600.3,444.9z"/>
	<path class="st9" d="M302.9,461.6c2,0.6,2.6,2.2,3.1,4c0.5,1.9,0.5,3.7,0.5,5.6c0,3.5,0,7.1,0,10.6c0,1.5-0.1,3.1-0.4,4.6
		c-0.8,3.3-2.7,4.8-6,4.9c-3.4,0.1-5.6-1.5-6.4-4.9c-0.3-1-0.4-2.1-0.4-3.1c0-4.8,0-9.7,0-14.5c0-1.3,0.1-2.6,0.7-3.8
		C296.9,463.9,300,463,302.9,461.6z"/>
	<path class="st8" d="M302.9,461.6c-2.9,1.4-6,2.4-9,3.4C295.5,460.9,298.4,459.8,302.9,461.6z"/>
	<path class="st7" d="M554.2,461.4c0,6.7,0,13.5,0,20.2c0,1.3,0,2.6-0.1,3.9c-0.5,3.8-2.7,5.8-6.3,5.8c-3.8,0-6.1-2-6.5-6
		c-0.1-1.4-0.2-2.8-0.2-4.3c0-13.1,0-26.3,0-39.4c0-1.7,0-3.3,0.2-5c0.5-3.5,2.6-5.2,6-5.3c3.8-0.1,5.9,1.5,6.6,5.1
		c0.3,1.4,0.2,2.8,0.2,4.2C554.2,447.6,554.2,454.5,554.2,461.4z"/>
	<path class="st9" d="M338.8,447.4c-0.3-3.2-0.3-6.4,0-9.6c0.4-4.4,2.6-6.3,6.6-6.3c3.6,0,5.4,1.5,6.2,5c0.4,1.5,0.4,3,0.4,4.6
		c0,13.5,0,27,0,40.5c0,1.7-0.1,3.3-0.5,4.9c-0.8,3.3-2.7,4.8-6.1,4.9c-3.5,0.1-5.5-1.5-6.4-4.9c-0.2-0.8-0.4-1.6-0.4-2.4
		c0-11.5-0.2-23,0.1-34.4c2-0.5,4-0.9,6-2.1C342.6,445.4,340.7,447.3,338.8,447.4z"/>
	<path class="st10" d="M338.8,447.4c1.9-0.1,3.9-1.9,6,0.1c-2,1.2-4,1.6-6,2.1C338.8,448.8,338.8,448.1,338.8,447.4z"/>
	<path class="st14" d="M750,436.9c0.6,3.8,1.1,7.2,1.6,10.6c1.2,8.3,2.4,16.6,3.6,24.9c0.1,0.8,0.2,1.6,0.3,2.5
		c0.1,1.1-0.4,1.5-1.4,1.5c-2.8,0-5.7,0-8.5,0c-1.4,0-1.9-0.5-1.7-1.9c0.6-3.9,1.1-7.7,1.6-11.6c1.2-8.1,2.4-16.1,3.5-24.2
		C749.1,438.2,749.2,437.6,750,436.9z"/>
	<path class="st14" d="M646.2,476.1c-3.7,0.5-7,0.1-10.3,0.2c-1.6,0.1-1.7-0.8-1.5-2c0.5-3.7,1-7.5,1.6-11.2
		c1.2-8.3,2.4-16.6,3.6-24.9c0-0.3,0.2-0.6,0.9-1C642.4,450.1,644.3,463.1,646.2,476.1z"/>
	<path class="st14" d="M857.7,436.8c1.2,8.1,2.4,16.1,3.6,24.2c0.6,4.2,1.2,8.4,1.9,12.6c0.4,2.7,0.4,2.7-2.4,2.7
		c-2.9,0-5.9,0-9.4,0c2-13.5,3.9-26.6,5.8-39.8C857.4,436.7,857.5,436.7,857.7,436.8z"/>
	<path class="st14" d="M445.3,476.1c1.9-13.2,3.9-26.3,5.8-39.4c1.5,4.6,1.9,9.4,2.6,14.1c1.2,7.6,2.2,15.2,3.4,22.8
		c0.4,2.7,0.4,2.8-2.4,2.8C451.6,476.3,448.5,476.7,445.3,476.1z"/>
	<path class="st9" d="M246.9,484.5c4.2-1.8,8.5-3.7,12.7-5.5c0.3,2,0.2,4,0,6c-0.5,4.5-2.8,6.6-6.9,6.4
		C248.9,491.2,247.1,489,246.9,484.5z"/>
	<path class="st9" d="M403.4,446.1c0-3.8,0.1-7.6,0-11.4c0-1.6,0.4-2.4,2.2-2.3c1.5,0.1,3.1,0,4.6,0.1c3.1,0.2,4.9,1.7,5.2,4.8
		c0.5,5.9,0.5,11.8,0,17.7c-0.2,2.9-1.9,4.4-4.8,4.8c-2.2,0.3-4.9,1-6.6-0.2c-1.6-1.1-0.5-3.8-0.6-5.7
		C403.3,451.3,403.4,448.7,403.4,446.1z"/>
	<path class="st11" d="M24.1,411c0.7,10.4,1.3,20.7,1.1,31.1c-0.8-9.1-1.6-18.1-2.4-27.2c-0.1-1.3,0-2.6,0-3.9
		C23.2,411,23.7,411,24.1,411z"/>
	<path class="st7" d="M24.1,411c-0.4,0-0.8,0-1.3,0c-0.3-3.3-0.6-6.6-0.8-10c0.4-0.5,0.9-0.7,1.6-0.3C24.3,404.1,24,407.6,24.1,411z
		"/>
	<path class="st10" d="M58.7,609.2c-1.1-0.6-1.2-1.5-0.9-2.6c0.8-0.1,0.8,0.6,1,1C59.1,608.1,59.2,608.7,58.7,609.2z"/>
	<path class="st11" d="M954.3,64.7c0.4-2.6,0.8-5.2,1.2-7.8c0.4,0,0.7-0.1,1.1-0.1c0.3,2-0.9,3.8-0.5,5.8
		c-1.7,11.2-3.3,22.4-4.5,33.6c-0.3,2.5-0.7,4.9-0.8,7.4c-0.1,0-0.3,0.1-0.4,0.2c-0.2-6,0.9-12,1.4-17.9
		C952.4,78.8,953.4,71.8,954.3,64.7z"/>
	<path class="st10" d="M950.3,103.7c0.1-0.1,0.2-0.2,0.4-0.2c0.4,2.1-0.5,4.2-0.6,6.3c-0.3,4.9-1,9.7-1.6,14.8
		c-0.7-1.1-0.5-2-0.4-2.9c0.4-5.6,0.9-11.2,1.4-16.8C949.6,104.3,949.9,104,950.3,103.7z"/>
	<path class="st10" d="M949.5,248.2c-0.7-1.7-0.7-1.7-0.3-3.7C949.8,245.7,949.5,247,949.5,248.2
		C949.5,248.2,949.5,248.2,949.5,248.2z"/>
	<path class="st11" d="M87.9,650.7c1.9,1.1,3.1,3,4.6,4.5c-0.3,0-0.5,0.2-0.5,0.5c-1.8-1.6-3.8-2.9-5.2-4.9
		C87.1,650.8,87.5,650.7,87.9,650.7z"/>
	<path class="st11" d="M147.7,693.1c-0.1,0-0.2,0.1-0.3,0.1c-0.3,0-0.4-0.2-0.2-0.3c0.1-0.1,0.2-0.1,0.3,0
		C147.6,692.9,147.6,693,147.7,693.1z"/>
	<path class="st7" d="M86.4,650.4c-0.2-0.3-0.8-0.6-0.3-1c0.5-0.4,0.7,0.1,0.9,0.4C86.8,650.1,86.6,650.2,86.4,650.4z"/>
	<path class="st7" d="M87.9,650.7c-0.4,0-0.8,0.1-1.2,0.1c-0.2-0.1-0.3-0.2-0.3-0.4c0.2-0.2,0.4-0.4,0.6-0.6
		C87.3,650.1,87.6,650.4,87.9,650.7z"/>
	<path class="st10" d="M92.3,655.9c-0.2,0-0.3-0.1-0.4-0.2c0-0.3,0.2-0.5,0.5-0.5c0.1,0.1,0.2,0.2,0.2,0.4
		C92.6,655.7,92.4,655.8,92.3,655.9z"/>
	<path class="st10" d="M93.1,656.5c-0.3-0.2-0.5-0.4-0.8-0.6c0.1-0.1,0.2-0.2,0.4-0.4c0.2,0.3,0.4,0.5,0.6,0.8L93.1,656.5z"/>
	<path class="st10" d="M94.5,657.9c-0.2-0.2-0.5-0.5-0.7-0.7c0,0,0.1-0.1,0.1-0.1c0.3,0.2,0.5,0.4,0.8,0.7
		C94.8,657.7,94.5,657.9,94.5,657.9z"/>
	<path class="st10" d="M94.8,657.7c0.1,0.2,0.2,0.3,0.2,0.5c-0.2-0.1-0.3-0.2-0.5-0.2C94.5,657.9,94.8,657.7,94.8,657.7z"/>
	<path class="st11" d="M149.1,693.6c0.1,0.1,0.1,0.1,0.2,0.2c-0.1,0.1-0.2,0.2-0.2,0.2c-0.1,0-0.1-0.1-0.2-0.2
		C148.9,693.7,149,693.6,149.1,693.6z"/>
	<path class="st10" d="M93.3,656.3c0.4,0.1,0.6,0.3,0.7,0.7c0,0-0.1,0.1-0.1,0.1c-0.4-0.1-0.6-0.3-0.7-0.7
		C93.1,656.5,93.3,656.3,93.3,656.3z"/>
</g>
    
<g id="bullet1">
	<circle class="cool1 st15" cx="491.8" cy="594" r="36.6"/>
</g>
    
<g id="bullet2">
	<circle class="cool2 st15" cx="613.5" cy="594" r="36.6"/>
</g>
    
<g id="bullet3">
	<circle class="cool3 st15" cx="737" cy="594" r="36.6"/>
</g>
    
</svg>
